<mxfile host="app.diagrams.net" modified="2023-03-30T19:57:37.507Z" agent="Mozilla/5.0 (Windows NT 10.0; Win64; x64) AppleWebKit/537.36 (KHTML, like Gecko) Chrome/111.0.0.0 Safari/537.36" etag="WpuX6opse3AKoSUo1NIr" version="21.1.2" type="device">
  <diagram id="C5RBs43oDa-KdzZeNtuy" name="Page-1">
    <mxGraphModel dx="1434" dy="1965" grid="1" gridSize="10" guides="1" tooltips="1" connect="1" arrows="1" fold="1" page="1" pageScale="1" pageWidth="827" pageHeight="1169" math="0" shadow="0">
      <root>
        <mxCell id="WIyWlLk6GJQsqaUBKTNV-0" />
        <mxCell id="WIyWlLk6GJQsqaUBKTNV-1" parent="WIyWlLk6GJQsqaUBKTNV-0" />
        <mxCell id="j27dEvf3UT6huoDrGfdZ-13" value="Itens" style="whiteSpace=wrap;html=1;align=center;" parent="WIyWlLk6GJQsqaUBKTNV-1" vertex="1">
          <mxGeometry x="570" y="245" width="100" height="40" as="geometry" />
        </mxCell>
        <mxCell id="j27dEvf3UT6huoDrGfdZ-14" value="Descrição" style="ellipse;whiteSpace=wrap;html=1;align=center;" parent="WIyWlLk6GJQsqaUBKTNV-1" vertex="1">
          <mxGeometry x="727" y="175" width="100" height="40" as="geometry" />
        </mxCell>
        <mxCell id="j27dEvf3UT6huoDrGfdZ-15" value="Nome" style="ellipse;whiteSpace=wrap;html=1;align=center;fontStyle=4;" parent="WIyWlLk6GJQsqaUBKTNV-1" vertex="1">
          <mxGeometry x="660" y="130" width="100" height="40" as="geometry" />
        </mxCell>
        <mxCell id="j27dEvf3UT6huoDrGfdZ-105" style="edgeStyle=orthogonalEdgeStyle;rounded=0;orthogonalLoop=1;jettySize=auto;html=1;entryX=1;entryY=0.5;entryDx=0;entryDy=0;endArrow=none;endFill=0;" parent="WIyWlLk6GJQsqaUBKTNV-1" source="j27dEvf3UT6huoDrGfdZ-18" target="j27dEvf3UT6huoDrGfdZ-84" edge="1">
          <mxGeometry relative="1" as="geometry" />
        </mxCell>
        <mxCell id="j27dEvf3UT6huoDrGfdZ-106" style="edgeStyle=orthogonalEdgeStyle;rounded=0;orthogonalLoop=1;jettySize=auto;html=1;entryX=1;entryY=0.5;entryDx=0;entryDy=0;endArrow=none;endFill=0;" parent="WIyWlLk6GJQsqaUBKTNV-1" source="j27dEvf3UT6huoDrGfdZ-18" target="j27dEvf3UT6huoDrGfdZ-83" edge="1">
          <mxGeometry relative="1" as="geometry" />
        </mxCell>
        <mxCell id="j27dEvf3UT6huoDrGfdZ-107" style="edgeStyle=orthogonalEdgeStyle;rounded=0;orthogonalLoop=1;jettySize=auto;html=1;entryX=1;entryY=0.5;entryDx=0;entryDy=0;endArrow=none;endFill=0;" parent="WIyWlLk6GJQsqaUBKTNV-1" source="j27dEvf3UT6huoDrGfdZ-18" target="j27dEvf3UT6huoDrGfdZ-85" edge="1">
          <mxGeometry relative="1" as="geometry" />
        </mxCell>
        <mxCell id="j27dEvf3UT6huoDrGfdZ-108" style="edgeStyle=orthogonalEdgeStyle;rounded=0;orthogonalLoop=1;jettySize=auto;html=1;entryX=1;entryY=0.5;entryDx=0;entryDy=0;endArrow=none;endFill=0;" parent="WIyWlLk6GJQsqaUBKTNV-1" source="j27dEvf3UT6huoDrGfdZ-18" target="j27dEvf3UT6huoDrGfdZ-86" edge="1">
          <mxGeometry relative="1" as="geometry" />
        </mxCell>
        <mxCell id="j27dEvf3UT6huoDrGfdZ-109" style="edgeStyle=orthogonalEdgeStyle;rounded=0;orthogonalLoop=1;jettySize=auto;html=1;entryX=0;entryY=0.5;entryDx=0;entryDy=0;endArrow=none;endFill=0;" parent="WIyWlLk6GJQsqaUBKTNV-1" source="j27dEvf3UT6huoDrGfdZ-18" target="j27dEvf3UT6huoDrGfdZ-87" edge="1">
          <mxGeometry relative="1" as="geometry" />
        </mxCell>
        <mxCell id="j27dEvf3UT6huoDrGfdZ-110" style="edgeStyle=orthogonalEdgeStyle;rounded=0;orthogonalLoop=1;jettySize=auto;html=1;entryX=0;entryY=0.5;entryDx=0;entryDy=0;endArrow=none;endFill=0;" parent="WIyWlLk6GJQsqaUBKTNV-1" source="j27dEvf3UT6huoDrGfdZ-18" target="j27dEvf3UT6huoDrGfdZ-88" edge="1">
          <mxGeometry relative="1" as="geometry" />
        </mxCell>
        <mxCell id="j27dEvf3UT6huoDrGfdZ-111" style="edgeStyle=orthogonalEdgeStyle;rounded=0;orthogonalLoop=1;jettySize=auto;html=1;entryX=0;entryY=0.5;entryDx=0;entryDy=0;endArrow=none;endFill=0;" parent="WIyWlLk6GJQsqaUBKTNV-1" source="j27dEvf3UT6huoDrGfdZ-18" target="j27dEvf3UT6huoDrGfdZ-89" edge="1">
          <mxGeometry relative="1" as="geometry" />
        </mxCell>
        <mxCell id="j27dEvf3UT6huoDrGfdZ-112" style="edgeStyle=orthogonalEdgeStyle;rounded=0;orthogonalLoop=1;jettySize=auto;html=1;entryX=0;entryY=0.5;entryDx=0;entryDy=0;endArrow=none;endFill=0;" parent="WIyWlLk6GJQsqaUBKTNV-1" source="j27dEvf3UT6huoDrGfdZ-18" target="j27dEvf3UT6huoDrGfdZ-90" edge="1">
          <mxGeometry relative="1" as="geometry" />
        </mxCell>
        <mxCell id="j27dEvf3UT6huoDrGfdZ-113" style="edgeStyle=orthogonalEdgeStyle;rounded=0;orthogonalLoop=1;jettySize=auto;html=1;entryX=0;entryY=0.5;entryDx=0;entryDy=0;endArrow=none;endFill=0;" parent="WIyWlLk6GJQsqaUBKTNV-1" source="j27dEvf3UT6huoDrGfdZ-18" target="j27dEvf3UT6huoDrGfdZ-91" edge="1">
          <mxGeometry relative="1" as="geometry" />
        </mxCell>
        <mxCell id="j27dEvf3UT6huoDrGfdZ-114" style="edgeStyle=orthogonalEdgeStyle;rounded=0;orthogonalLoop=1;jettySize=auto;html=1;entryX=0;entryY=0.5;entryDx=0;entryDy=0;endArrow=none;endFill=0;" parent="WIyWlLk6GJQsqaUBKTNV-1" source="j27dEvf3UT6huoDrGfdZ-18" target="j27dEvf3UT6huoDrGfdZ-92" edge="1">
          <mxGeometry relative="1" as="geometry" />
        </mxCell>
        <mxCell id="j27dEvf3UT6huoDrGfdZ-115" style="edgeStyle=orthogonalEdgeStyle;rounded=0;orthogonalLoop=1;jettySize=auto;html=1;entryX=0;entryY=0.5;entryDx=0;entryDy=0;endArrow=none;endFill=0;" parent="WIyWlLk6GJQsqaUBKTNV-1" source="j27dEvf3UT6huoDrGfdZ-18" target="j27dEvf3UT6huoDrGfdZ-93" edge="1">
          <mxGeometry relative="1" as="geometry" />
        </mxCell>
        <mxCell id="j27dEvf3UT6huoDrGfdZ-116" style="edgeStyle=orthogonalEdgeStyle;rounded=0;orthogonalLoop=1;jettySize=auto;html=1;entryX=1;entryY=0.5;entryDx=0;entryDy=0;endArrow=none;endFill=0;" parent="WIyWlLk6GJQsqaUBKTNV-1" source="j27dEvf3UT6huoDrGfdZ-18" target="j27dEvf3UT6huoDrGfdZ-94" edge="1">
          <mxGeometry relative="1" as="geometry" />
        </mxCell>
        <mxCell id="j27dEvf3UT6huoDrGfdZ-117" style="edgeStyle=orthogonalEdgeStyle;rounded=0;orthogonalLoop=1;jettySize=auto;html=1;entryX=1;entryY=0.5;entryDx=0;entryDy=0;endArrow=none;endFill=0;" parent="WIyWlLk6GJQsqaUBKTNV-1" source="j27dEvf3UT6huoDrGfdZ-18" target="j27dEvf3UT6huoDrGfdZ-95" edge="1">
          <mxGeometry relative="1" as="geometry" />
        </mxCell>
        <mxCell id="j27dEvf3UT6huoDrGfdZ-118" style="edgeStyle=orthogonalEdgeStyle;rounded=0;orthogonalLoop=1;jettySize=auto;html=1;entryX=1;entryY=0.5;entryDx=0;entryDy=0;endArrow=none;endFill=0;" parent="WIyWlLk6GJQsqaUBKTNV-1" source="j27dEvf3UT6huoDrGfdZ-18" target="j27dEvf3UT6huoDrGfdZ-96" edge="1">
          <mxGeometry relative="1" as="geometry" />
        </mxCell>
        <mxCell id="j27dEvf3UT6huoDrGfdZ-119" style="edgeStyle=orthogonalEdgeStyle;rounded=0;orthogonalLoop=1;jettySize=auto;html=1;entryX=1;entryY=0.5;entryDx=0;entryDy=0;endArrow=none;endFill=0;" parent="WIyWlLk6GJQsqaUBKTNV-1" source="j27dEvf3UT6huoDrGfdZ-18" target="j27dEvf3UT6huoDrGfdZ-97" edge="1">
          <mxGeometry relative="1" as="geometry" />
        </mxCell>
        <mxCell id="j27dEvf3UT6huoDrGfdZ-120" style="edgeStyle=orthogonalEdgeStyle;rounded=0;orthogonalLoop=1;jettySize=auto;html=1;entryX=1;entryY=0.5;entryDx=0;entryDy=0;endArrow=none;endFill=0;" parent="WIyWlLk6GJQsqaUBKTNV-1" source="j27dEvf3UT6huoDrGfdZ-18" target="j27dEvf3UT6huoDrGfdZ-98" edge="1">
          <mxGeometry relative="1" as="geometry" />
        </mxCell>
        <mxCell id="j27dEvf3UT6huoDrGfdZ-121" style="edgeStyle=orthogonalEdgeStyle;rounded=0;orthogonalLoop=1;jettySize=auto;html=1;entryX=1;entryY=0.5;entryDx=0;entryDy=0;endArrow=none;endFill=0;" parent="WIyWlLk6GJQsqaUBKTNV-1" source="j27dEvf3UT6huoDrGfdZ-18" target="j27dEvf3UT6huoDrGfdZ-101" edge="1">
          <mxGeometry relative="1" as="geometry" />
        </mxCell>
        <mxCell id="j27dEvf3UT6huoDrGfdZ-122" style="edgeStyle=orthogonalEdgeStyle;rounded=0;orthogonalLoop=1;jettySize=auto;html=1;entryX=0;entryY=0.5;entryDx=0;entryDy=0;endArrow=none;endFill=0;" parent="WIyWlLk6GJQsqaUBKTNV-1" source="j27dEvf3UT6huoDrGfdZ-18" target="j27dEvf3UT6huoDrGfdZ-99" edge="1">
          <mxGeometry relative="1" as="geometry" />
        </mxCell>
        <mxCell id="j27dEvf3UT6huoDrGfdZ-123" style="edgeStyle=orthogonalEdgeStyle;rounded=0;orthogonalLoop=1;jettySize=auto;html=1;entryX=0;entryY=0.5;entryDx=0;entryDy=0;endArrow=none;endFill=0;" parent="WIyWlLk6GJQsqaUBKTNV-1" source="j27dEvf3UT6huoDrGfdZ-18" target="j27dEvf3UT6huoDrGfdZ-100" edge="1">
          <mxGeometry relative="1" as="geometry" />
        </mxCell>
        <mxCell id="j27dEvf3UT6huoDrGfdZ-124" style="edgeStyle=orthogonalEdgeStyle;rounded=0;orthogonalLoop=1;jettySize=auto;html=1;entryX=0;entryY=0.5;entryDx=0;entryDy=0;endArrow=none;endFill=0;" parent="WIyWlLk6GJQsqaUBKTNV-1" source="j27dEvf3UT6huoDrGfdZ-18" target="j27dEvf3UT6huoDrGfdZ-102" edge="1">
          <mxGeometry relative="1" as="geometry" />
        </mxCell>
        <mxCell id="j27dEvf3UT6huoDrGfdZ-18" value="Personagens" style="whiteSpace=wrap;html=1;align=center;" parent="WIyWlLk6GJQsqaUBKTNV-1" vertex="1">
          <mxGeometry x="350" y="440" width="100" height="40" as="geometry" />
        </mxCell>
        <mxCell id="j27dEvf3UT6huoDrGfdZ-83" value="almas" style="ellipse;whiteSpace=wrap;html=1;align=center;" parent="WIyWlLk6GJQsqaUBKTNV-1" vertex="1">
          <mxGeometry x="170" y="480" width="100" height="40" as="geometry" />
        </mxCell>
        <mxCell id="j27dEvf3UT6huoDrGfdZ-85" value="classe" style="ellipse;whiteSpace=wrap;html=1;align=center;" parent="WIyWlLk6GJQsqaUBKTNV-1" vertex="1">
          <mxGeometry x="170" y="520" width="100" height="40" as="geometry" />
        </mxCell>
        <mxCell id="j27dEvf3UT6huoDrGfdZ-86" value="vida" style="ellipse;whiteSpace=wrap;html=1;align=center;" parent="WIyWlLk6GJQsqaUBKTNV-1" vertex="1">
          <mxGeometry x="170" y="560" width="100" height="40" as="geometry" />
        </mxCell>
        <mxCell id="j27dEvf3UT6huoDrGfdZ-87" value="stamina" style="ellipse;whiteSpace=wrap;html=1;align=center;" parent="WIyWlLk6GJQsqaUBKTNV-1" vertex="1">
          <mxGeometry x="530" y="440" width="100" height="40" as="geometry" />
        </mxCell>
        <mxCell id="j27dEvf3UT6huoDrGfdZ-84" value="Nome" style="ellipse;whiteSpace=wrap;html=1;align=center;fontStyle=4;" parent="WIyWlLk6GJQsqaUBKTNV-1" vertex="1">
          <mxGeometry x="170" y="440" width="100" height="40" as="geometry" />
        </mxCell>
        <mxCell id="j27dEvf3UT6huoDrGfdZ-88" value="equip_load" style="ellipse;whiteSpace=wrap;html=1;align=center;" parent="WIyWlLk6GJQsqaUBKTNV-1" vertex="1">
          <mxGeometry x="530" y="480" width="100" height="40" as="geometry" />
        </mxCell>
        <mxCell id="j27dEvf3UT6huoDrGfdZ-89" value="item_discovery" style="ellipse;whiteSpace=wrap;html=1;align=center;" parent="WIyWlLk6GJQsqaUBKTNV-1" vertex="1">
          <mxGeometry x="530" y="520" width="100" height="40" as="geometry" />
        </mxCell>
        <mxCell id="j27dEvf3UT6huoDrGfdZ-90" value="atuunment_slot" style="ellipse;whiteSpace=wrap;html=1;align=center;" parent="WIyWlLk6GJQsqaUBKTNV-1" vertex="1">
          <mxGeometry x="530" y="560" width="100" height="40" as="geometry" />
        </mxCell>
        <mxCell id="j27dEvf3UT6huoDrGfdZ-91" value="resistencia_bleed" style="ellipse;whiteSpace=wrap;html=1;align=center;" parent="WIyWlLk6GJQsqaUBKTNV-1" vertex="1">
          <mxGeometry x="530" y="600" width="100" height="40" as="geometry" />
        </mxCell>
        <mxCell id="j27dEvf3UT6huoDrGfdZ-92" value="resistencia_poison" style="ellipse;whiteSpace=wrap;html=1;align=center;" parent="WIyWlLk6GJQsqaUBKTNV-1" vertex="1">
          <mxGeometry x="530" y="640" width="100" height="40" as="geometry" />
        </mxCell>
        <mxCell id="j27dEvf3UT6huoDrGfdZ-93" value="resistencia_curse" style="ellipse;whiteSpace=wrap;html=1;align=center;" parent="WIyWlLk6GJQsqaUBKTNV-1" vertex="1">
          <mxGeometry x="530" y="680" width="100" height="40" as="geometry" />
        </mxCell>
        <mxCell id="j27dEvf3UT6huoDrGfdZ-94" value="poise" style="ellipse;whiteSpace=wrap;html=1;align=center;" parent="WIyWlLk6GJQsqaUBKTNV-1" vertex="1">
          <mxGeometry x="170" y="600" width="100" height="40" as="geometry" />
        </mxCell>
        <mxCell id="j27dEvf3UT6huoDrGfdZ-95" value="nivel" style="ellipse;whiteSpace=wrap;html=1;align=center;" parent="WIyWlLk6GJQsqaUBKTNV-1" vertex="1">
          <mxGeometry x="170" y="640" width="100" height="40" as="geometry" />
        </mxCell>
        <mxCell id="j27dEvf3UT6huoDrGfdZ-96" value="vitaliry" style="ellipse;whiteSpace=wrap;html=1;align=center;" parent="WIyWlLk6GJQsqaUBKTNV-1" vertex="1">
          <mxGeometry x="170" y="680" width="100" height="40" as="geometry" />
        </mxCell>
        <mxCell id="j27dEvf3UT6huoDrGfdZ-97" value="endurance" style="ellipse;whiteSpace=wrap;html=1;align=center;" parent="WIyWlLk6GJQsqaUBKTNV-1" vertex="1">
          <mxGeometry x="170" y="720" width="100" height="40" as="geometry" />
        </mxCell>
        <mxCell id="j27dEvf3UT6huoDrGfdZ-98" value="strength" style="ellipse;whiteSpace=wrap;html=1;align=center;" parent="WIyWlLk6GJQsqaUBKTNV-1" vertex="1">
          <mxGeometry x="170" y="760" width="100" height="40" as="geometry" />
        </mxCell>
        <mxCell id="j27dEvf3UT6huoDrGfdZ-99" value="dexterity" style="ellipse;whiteSpace=wrap;html=1;align=center;" parent="WIyWlLk6GJQsqaUBKTNV-1" vertex="1">
          <mxGeometry x="530" y="720" width="100" height="40" as="geometry" />
        </mxCell>
        <mxCell id="j27dEvf3UT6huoDrGfdZ-100" value="resistance" style="ellipse;whiteSpace=wrap;html=1;align=center;" parent="WIyWlLk6GJQsqaUBKTNV-1" vertex="1">
          <mxGeometry x="530" y="760" width="100" height="40" as="geometry" />
        </mxCell>
        <mxCell id="j27dEvf3UT6huoDrGfdZ-101" value="faith" style="ellipse;whiteSpace=wrap;html=1;align=center;" parent="WIyWlLk6GJQsqaUBKTNV-1" vertex="1">
          <mxGeometry x="170" y="800" width="100" height="40" as="geometry" />
        </mxCell>
        <mxCell id="j27dEvf3UT6huoDrGfdZ-102" value="humanity" style="ellipse;whiteSpace=wrap;html=1;align=center;" parent="WIyWlLk6GJQsqaUBKTNV-1" vertex="1">
          <mxGeometry x="530" y="800" width="100" height="40" as="geometry" />
        </mxCell>
        <mxCell id="j27dEvf3UT6huoDrGfdZ-141" value="Tem" style="shape=associativeEntity;whiteSpace=wrap;html=1;align=center;" parent="WIyWlLk6GJQsqaUBKTNV-1" vertex="1">
          <mxGeometry x="300" y="250" width="140" height="60" as="geometry" />
        </mxCell>
        <mxCell id="j27dEvf3UT6huoDrGfdZ-142" value="Equipa" style="shape=rhombus;perimeter=rhombusPerimeter;whiteSpace=wrap;html=1;align=center;" parent="WIyWlLk6GJQsqaUBKTNV-1" vertex="1">
          <mxGeometry x="440" y="340" width="120" height="60" as="geometry" />
        </mxCell>
        <mxCell id="j27dEvf3UT6huoDrGfdZ-203" style="edgeStyle=orthogonalEdgeStyle;rounded=0;orthogonalLoop=1;jettySize=auto;html=1;entryX=1;entryY=0.5;entryDx=0;entryDy=0;endArrow=none;endFill=0;" parent="WIyWlLk6GJQsqaUBKTNV-1" source="j27dEvf3UT6huoDrGfdZ-149" target="j27dEvf3UT6huoDrGfdZ-156" edge="1">
          <mxGeometry relative="1" as="geometry" />
        </mxCell>
        <mxCell id="j27dEvf3UT6huoDrGfdZ-204" style="edgeStyle=orthogonalEdgeStyle;rounded=0;orthogonalLoop=1;jettySize=auto;html=1;entryX=1;entryY=0.5;entryDx=0;entryDy=0;endArrow=none;endFill=0;" parent="WIyWlLk6GJQsqaUBKTNV-1" source="j27dEvf3UT6huoDrGfdZ-149" target="j27dEvf3UT6huoDrGfdZ-154" edge="1">
          <mxGeometry relative="1" as="geometry" />
        </mxCell>
        <mxCell id="j27dEvf3UT6huoDrGfdZ-205" style="edgeStyle=orthogonalEdgeStyle;rounded=0;orthogonalLoop=1;jettySize=auto;html=1;entryX=1;entryY=0.5;entryDx=0;entryDy=0;endArrow=none;endFill=0;" parent="WIyWlLk6GJQsqaUBKTNV-1" source="j27dEvf3UT6huoDrGfdZ-149" target="j27dEvf3UT6huoDrGfdZ-155" edge="1">
          <mxGeometry relative="1" as="geometry">
            <Array as="points">
              <mxPoint x="1654" y="570" />
              <mxPoint x="1654" y="610" />
              <mxPoint x="1655" y="610" />
              <mxPoint x="1655" y="650" />
            </Array>
          </mxGeometry>
        </mxCell>
        <mxCell id="j27dEvf3UT6huoDrGfdZ-206" style="edgeStyle=orthogonalEdgeStyle;rounded=0;orthogonalLoop=1;jettySize=auto;html=1;entryX=0;entryY=0.5;entryDx=0;entryDy=0;endArrow=none;endFill=0;" parent="WIyWlLk6GJQsqaUBKTNV-1" source="j27dEvf3UT6huoDrGfdZ-149" target="j27dEvf3UT6huoDrGfdZ-153" edge="1">
          <mxGeometry relative="1" as="geometry" />
        </mxCell>
        <mxCell id="j27dEvf3UT6huoDrGfdZ-207" style="edgeStyle=orthogonalEdgeStyle;rounded=0;orthogonalLoop=1;jettySize=auto;html=1;entryX=0;entryY=0.5;entryDx=0;entryDy=0;endArrow=none;endFill=0;" parent="WIyWlLk6GJQsqaUBKTNV-1" source="j27dEvf3UT6huoDrGfdZ-149" target="j27dEvf3UT6huoDrGfdZ-152" edge="1">
          <mxGeometry relative="1" as="geometry" />
        </mxCell>
        <mxCell id="j27dEvf3UT6huoDrGfdZ-208" style="edgeStyle=orthogonalEdgeStyle;rounded=0;orthogonalLoop=1;jettySize=auto;html=1;entryX=0;entryY=0.5;entryDx=0;entryDy=0;endArrow=none;endFill=0;" parent="WIyWlLk6GJQsqaUBKTNV-1" source="j27dEvf3UT6huoDrGfdZ-149" target="j27dEvf3UT6huoDrGfdZ-151" edge="1">
          <mxGeometry relative="1" as="geometry" />
        </mxCell>
        <mxCell id="j27dEvf3UT6huoDrGfdZ-209" style="edgeStyle=orthogonalEdgeStyle;rounded=0;orthogonalLoop=1;jettySize=auto;html=1;entryX=0.5;entryY=0;entryDx=0;entryDy=0;endArrow=none;endFill=0;" parent="WIyWlLk6GJQsqaUBKTNV-1" source="j27dEvf3UT6huoDrGfdZ-149" target="j27dEvf3UT6huoDrGfdZ-150" edge="1">
          <mxGeometry relative="1" as="geometry" />
        </mxCell>
        <mxCell id="j27dEvf3UT6huoDrGfdZ-149" value="Spells" style="whiteSpace=wrap;html=1;align=center;" parent="WIyWlLk6GJQsqaUBKTNV-1" vertex="1">
          <mxGeometry x="1674" y="550" width="100" height="40" as="geometry" />
        </mxCell>
        <mxCell id="j27dEvf3UT6huoDrGfdZ-150" value="&lt;span style=&quot;border-bottom: 1px dotted&quot;&gt;nome_spells&lt;/span&gt;" style="ellipse;whiteSpace=wrap;html=1;align=center;" parent="WIyWlLk6GJQsqaUBKTNV-1" vertex="1">
          <mxGeometry x="1674" y="620" width="100" height="40" as="geometry" />
        </mxCell>
        <mxCell id="j27dEvf3UT6huoDrGfdZ-151" value="categoria" style="ellipse;whiteSpace=wrap;html=1;align=center;" parent="WIyWlLk6GJQsqaUBKTNV-1" vertex="1">
          <mxGeometry x="1815" y="640" width="100" height="40" as="geometry" />
        </mxCell>
        <mxCell id="j27dEvf3UT6huoDrGfdZ-152" value="usos" style="ellipse;whiteSpace=wrap;html=1;align=center;" parent="WIyWlLk6GJQsqaUBKTNV-1" vertex="1">
          <mxGeometry x="1815" y="600" width="100" height="40" as="geometry" />
        </mxCell>
        <mxCell id="j27dEvf3UT6huoDrGfdZ-153" value="slots" style="ellipse;whiteSpace=wrap;html=1;align=center;" parent="WIyWlLk6GJQsqaUBKTNV-1" vertex="1">
          <mxGeometry x="1815" y="560" width="100" height="40" as="geometry" />
        </mxCell>
        <mxCell id="j27dEvf3UT6huoDrGfdZ-154" value="requisito_int" style="ellipse;whiteSpace=wrap;html=1;align=center;" parent="WIyWlLk6GJQsqaUBKTNV-1" vertex="1">
          <mxGeometry x="1535" y="590" width="100" height="40" as="geometry" />
        </mxCell>
        <mxCell id="j27dEvf3UT6huoDrGfdZ-155" value="requisito_fe" style="ellipse;whiteSpace=wrap;html=1;align=center;" parent="WIyWlLk6GJQsqaUBKTNV-1" vertex="1">
          <mxGeometry x="1535" y="630" width="100" height="40" as="geometry" />
        </mxCell>
        <mxCell id="j27dEvf3UT6huoDrGfdZ-156" value="tipo" style="ellipse;whiteSpace=wrap;html=1;align=center;" parent="WIyWlLk6GJQsqaUBKTNV-1" vertex="1">
          <mxGeometry x="1535" y="550" width="100" height="40" as="geometry" />
        </mxCell>
        <mxCell id="j27dEvf3UT6huoDrGfdZ-188" style="edgeStyle=orthogonalEdgeStyle;rounded=0;orthogonalLoop=1;jettySize=auto;html=1;entryX=1;entryY=0.5;entryDx=0;entryDy=0;endArrow=none;endFill=0;" parent="WIyWlLk6GJQsqaUBKTNV-1" source="j27dEvf3UT6huoDrGfdZ-169" target="j27dEvf3UT6huoDrGfdZ-180" edge="1">
          <mxGeometry relative="1" as="geometry" />
        </mxCell>
        <mxCell id="j27dEvf3UT6huoDrGfdZ-189" style="edgeStyle=orthogonalEdgeStyle;rounded=0;orthogonalLoop=1;jettySize=auto;html=1;entryX=0;entryY=0.5;entryDx=0;entryDy=0;endArrow=none;endFill=0;" parent="WIyWlLk6GJQsqaUBKTNV-1" source="j27dEvf3UT6huoDrGfdZ-169" target="j27dEvf3UT6huoDrGfdZ-173" edge="1">
          <mxGeometry relative="1" as="geometry" />
        </mxCell>
        <mxCell id="j27dEvf3UT6huoDrGfdZ-190" style="edgeStyle=orthogonalEdgeStyle;rounded=0;orthogonalLoop=1;jettySize=auto;html=1;entryX=0;entryY=0.5;entryDx=0;entryDy=0;endArrow=none;endFill=0;" parent="WIyWlLk6GJQsqaUBKTNV-1" source="j27dEvf3UT6huoDrGfdZ-169" target="j27dEvf3UT6huoDrGfdZ-175" edge="1">
          <mxGeometry relative="1" as="geometry" />
        </mxCell>
        <mxCell id="j27dEvf3UT6huoDrGfdZ-191" style="edgeStyle=orthogonalEdgeStyle;rounded=0;orthogonalLoop=1;jettySize=auto;html=1;entryX=0;entryY=0.5;entryDx=0;entryDy=0;endArrow=none;endFill=0;" parent="WIyWlLk6GJQsqaUBKTNV-1" source="j27dEvf3UT6huoDrGfdZ-169" target="j27dEvf3UT6huoDrGfdZ-176" edge="1">
          <mxGeometry relative="1" as="geometry" />
        </mxCell>
        <mxCell id="j27dEvf3UT6huoDrGfdZ-192" style="edgeStyle=orthogonalEdgeStyle;rounded=0;orthogonalLoop=1;jettySize=auto;html=1;entryX=1;entryY=0.5;entryDx=0;entryDy=0;endArrow=none;endFill=0;" parent="WIyWlLk6GJQsqaUBKTNV-1" source="j27dEvf3UT6huoDrGfdZ-169" target="j27dEvf3UT6huoDrGfdZ-181" edge="1">
          <mxGeometry relative="1" as="geometry" />
        </mxCell>
        <mxCell id="j27dEvf3UT6huoDrGfdZ-193" style="edgeStyle=orthogonalEdgeStyle;rounded=0;orthogonalLoop=1;jettySize=auto;html=1;entryX=1;entryY=0.5;entryDx=0;entryDy=0;endArrow=none;endFill=0;" parent="WIyWlLk6GJQsqaUBKTNV-1" source="j27dEvf3UT6huoDrGfdZ-169" target="j27dEvf3UT6huoDrGfdZ-182" edge="1">
          <mxGeometry relative="1" as="geometry" />
        </mxCell>
        <mxCell id="j27dEvf3UT6huoDrGfdZ-194" style="edgeStyle=orthogonalEdgeStyle;rounded=0;orthogonalLoop=1;jettySize=auto;html=1;entryX=1;entryY=0.5;entryDx=0;entryDy=0;endArrow=none;endFill=0;" parent="WIyWlLk6GJQsqaUBKTNV-1" source="j27dEvf3UT6huoDrGfdZ-169" target="j27dEvf3UT6huoDrGfdZ-183" edge="1">
          <mxGeometry relative="1" as="geometry" />
        </mxCell>
        <mxCell id="j27dEvf3UT6huoDrGfdZ-195" style="edgeStyle=orthogonalEdgeStyle;rounded=0;orthogonalLoop=1;jettySize=auto;html=1;entryX=1;entryY=0.5;entryDx=0;entryDy=0;endArrow=none;endFill=0;" parent="WIyWlLk6GJQsqaUBKTNV-1" source="j27dEvf3UT6huoDrGfdZ-169" target="j27dEvf3UT6huoDrGfdZ-184" edge="1">
          <mxGeometry relative="1" as="geometry" />
        </mxCell>
        <mxCell id="j27dEvf3UT6huoDrGfdZ-196" style="edgeStyle=orthogonalEdgeStyle;rounded=0;orthogonalLoop=1;jettySize=auto;html=1;entryX=1;entryY=0.25;entryDx=0;entryDy=0;entryPerimeter=0;endArrow=none;endFill=0;" parent="WIyWlLk6GJQsqaUBKTNV-1" source="j27dEvf3UT6huoDrGfdZ-169" target="j27dEvf3UT6huoDrGfdZ-185" edge="1">
          <mxGeometry relative="1" as="geometry" />
        </mxCell>
        <mxCell id="j27dEvf3UT6huoDrGfdZ-197" style="edgeStyle=orthogonalEdgeStyle;rounded=0;orthogonalLoop=1;jettySize=auto;html=1;entryX=1;entryY=0.5;entryDx=0;entryDy=0;endArrow=none;endFill=0;" parent="WIyWlLk6GJQsqaUBKTNV-1" source="j27dEvf3UT6huoDrGfdZ-169" target="j27dEvf3UT6huoDrGfdZ-186" edge="1">
          <mxGeometry relative="1" as="geometry" />
        </mxCell>
        <mxCell id="j27dEvf3UT6huoDrGfdZ-198" style="edgeStyle=orthogonalEdgeStyle;rounded=0;orthogonalLoop=1;jettySize=auto;html=1;entryX=0;entryY=0.5;entryDx=0;entryDy=0;endArrow=none;endFill=0;" parent="WIyWlLk6GJQsqaUBKTNV-1" source="j27dEvf3UT6huoDrGfdZ-169" target="j27dEvf3UT6huoDrGfdZ-177" edge="1">
          <mxGeometry relative="1" as="geometry" />
        </mxCell>
        <mxCell id="j27dEvf3UT6huoDrGfdZ-199" style="edgeStyle=orthogonalEdgeStyle;rounded=0;orthogonalLoop=1;jettySize=auto;html=1;entryX=0;entryY=0.5;entryDx=0;entryDy=0;endArrow=none;endFill=0;" parent="WIyWlLk6GJQsqaUBKTNV-1" source="j27dEvf3UT6huoDrGfdZ-169" target="j27dEvf3UT6huoDrGfdZ-178" edge="1">
          <mxGeometry relative="1" as="geometry" />
        </mxCell>
        <mxCell id="j27dEvf3UT6huoDrGfdZ-200" style="edgeStyle=orthogonalEdgeStyle;rounded=0;orthogonalLoop=1;jettySize=auto;html=1;entryX=0;entryY=0.5;entryDx=0;entryDy=0;endArrow=none;endFill=0;" parent="WIyWlLk6GJQsqaUBKTNV-1" source="j27dEvf3UT6huoDrGfdZ-169" target="j27dEvf3UT6huoDrGfdZ-179" edge="1">
          <mxGeometry relative="1" as="geometry" />
        </mxCell>
        <mxCell id="j27dEvf3UT6huoDrGfdZ-201" style="edgeStyle=orthogonalEdgeStyle;rounded=0;orthogonalLoop=1;jettySize=auto;html=1;entryX=0;entryY=0.5;entryDx=0;entryDy=0;endArrow=none;endFill=0;" parent="WIyWlLk6GJQsqaUBKTNV-1" source="j27dEvf3UT6huoDrGfdZ-169" target="j27dEvf3UT6huoDrGfdZ-187" edge="1">
          <mxGeometry relative="1" as="geometry" />
        </mxCell>
        <mxCell id="j27dEvf3UT6huoDrGfdZ-169" value="armaduras" style="whiteSpace=wrap;html=1;align=center;" parent="WIyWlLk6GJQsqaUBKTNV-1" vertex="1">
          <mxGeometry x="845" y="570" width="100" height="40" as="geometry" />
        </mxCell>
        <mxCell id="j27dEvf3UT6huoDrGfdZ-173" value="&lt;span style=&quot;border-bottom: 1px dotted&quot;&gt;nome_armadura&lt;/span&gt;" style="ellipse;whiteSpace=wrap;html=1;align=center;" parent="WIyWlLk6GJQsqaUBKTNV-1" vertex="1">
          <mxGeometry x="985" y="570" width="100" height="40" as="geometry" />
        </mxCell>
        <mxCell id="j27dEvf3UT6huoDrGfdZ-175" value="resistencia_fis" style="ellipse;whiteSpace=wrap;html=1;align=center;" parent="WIyWlLk6GJQsqaUBKTNV-1" vertex="1">
          <mxGeometry x="985" y="610" width="100" height="40" as="geometry" />
        </mxCell>
        <mxCell id="j27dEvf3UT6huoDrGfdZ-176" value="resistencia_impac" style="ellipse;whiteSpace=wrap;html=1;align=center;" parent="WIyWlLk6GJQsqaUBKTNV-1" vertex="1">
          <mxGeometry x="985" y="650" width="100" height="40" as="geometry" />
        </mxCell>
        <mxCell id="j27dEvf3UT6huoDrGfdZ-177" value="resistencia_cort" style="ellipse;whiteSpace=wrap;html=1;align=center;" parent="WIyWlLk6GJQsqaUBKTNV-1" vertex="1">
          <mxGeometry x="985" y="690" width="100" height="40" as="geometry" />
        </mxCell>
        <mxCell id="j27dEvf3UT6huoDrGfdZ-178" value="resistencia_perfu" style="ellipse;whiteSpace=wrap;html=1;align=center;" parent="WIyWlLk6GJQsqaUBKTNV-1" vertex="1">
          <mxGeometry x="985" y="730" width="100" height="40" as="geometry" />
        </mxCell>
        <mxCell id="j27dEvf3UT6huoDrGfdZ-179" value="resistencia_magic" style="ellipse;whiteSpace=wrap;html=1;align=center;" parent="WIyWlLk6GJQsqaUBKTNV-1" vertex="1">
          <mxGeometry x="985" y="770" width="100" height="40" as="geometry" />
        </mxCell>
        <mxCell id="j27dEvf3UT6huoDrGfdZ-180" value="resistencia_fogo" style="ellipse;whiteSpace=wrap;html=1;align=center;" parent="WIyWlLk6GJQsqaUBKTNV-1" vertex="1">
          <mxGeometry x="705" y="570" width="100" height="40" as="geometry" />
        </mxCell>
        <mxCell id="j27dEvf3UT6huoDrGfdZ-181" value="resistencia_elet" style="ellipse;whiteSpace=wrap;html=1;align=center;" parent="WIyWlLk6GJQsqaUBKTNV-1" vertex="1">
          <mxGeometry x="705" y="610" width="100" height="40" as="geometry" />
        </mxCell>
        <mxCell id="j27dEvf3UT6huoDrGfdZ-182" value="resistencia_bleed" style="ellipse;whiteSpace=wrap;html=1;align=center;" parent="WIyWlLk6GJQsqaUBKTNV-1" vertex="1">
          <mxGeometry x="705" y="650" width="100" height="40" as="geometry" />
        </mxCell>
        <mxCell id="j27dEvf3UT6huoDrGfdZ-183" value="resistencia_poison" style="ellipse;whiteSpace=wrap;html=1;align=center;" parent="WIyWlLk6GJQsqaUBKTNV-1" vertex="1">
          <mxGeometry x="705" y="690" width="100" height="40" as="geometry" />
        </mxCell>
        <mxCell id="j27dEvf3UT6huoDrGfdZ-184" value="resistencia_curse" style="ellipse;whiteSpace=wrap;html=1;align=center;" parent="WIyWlLk6GJQsqaUBKTNV-1" vertex="1">
          <mxGeometry x="705" y="730" width="100" height="40" as="geometry" />
        </mxCell>
        <mxCell id="j27dEvf3UT6huoDrGfdZ-185" value="durabilidade" style="ellipse;whiteSpace=wrap;html=1;align=center;" parent="WIyWlLk6GJQsqaUBKTNV-1" vertex="1">
          <mxGeometry x="705" y="770" width="100" height="40" as="geometry" />
        </mxCell>
        <mxCell id="j27dEvf3UT6huoDrGfdZ-186" value="peso" style="ellipse;whiteSpace=wrap;html=1;align=center;" parent="WIyWlLk6GJQsqaUBKTNV-1" vertex="1">
          <mxGeometry x="705" y="810" width="100" height="40" as="geometry" />
        </mxCell>
        <mxCell id="j27dEvf3UT6huoDrGfdZ-187" value="poise" style="ellipse;whiteSpace=wrap;html=1;align=center;" parent="WIyWlLk6GJQsqaUBKTNV-1" vertex="1">
          <mxGeometry x="985" y="810" width="100" height="40" as="geometry" />
        </mxCell>
        <mxCell id="j27dEvf3UT6huoDrGfdZ-239" style="edgeStyle=orthogonalEdgeStyle;rounded=0;orthogonalLoop=1;jettySize=auto;html=1;entryX=1;entryY=0.5;entryDx=0;entryDy=0;endArrow=none;endFill=0;" parent="WIyWlLk6GJQsqaUBKTNV-1" source="j27dEvf3UT6huoDrGfdZ-210" target="j27dEvf3UT6huoDrGfdZ-215" edge="1">
          <mxGeometry relative="1" as="geometry" />
        </mxCell>
        <mxCell id="j27dEvf3UT6huoDrGfdZ-240" style="edgeStyle=orthogonalEdgeStyle;rounded=0;orthogonalLoop=1;jettySize=auto;html=1;entryX=1;entryY=0.5;entryDx=0;entryDy=0;endArrow=none;endFill=0;" parent="WIyWlLk6GJQsqaUBKTNV-1" source="j27dEvf3UT6huoDrGfdZ-210" target="j27dEvf3UT6huoDrGfdZ-216" edge="1">
          <mxGeometry relative="1" as="geometry" />
        </mxCell>
        <mxCell id="j27dEvf3UT6huoDrGfdZ-241" style="edgeStyle=orthogonalEdgeStyle;rounded=0;orthogonalLoop=1;jettySize=auto;html=1;entryX=1;entryY=0.5;entryDx=0;entryDy=0;endArrow=none;endFill=0;" parent="WIyWlLk6GJQsqaUBKTNV-1" source="j27dEvf3UT6huoDrGfdZ-210" target="j27dEvf3UT6huoDrGfdZ-217" edge="1">
          <mxGeometry relative="1" as="geometry" />
        </mxCell>
        <mxCell id="j27dEvf3UT6huoDrGfdZ-242" style="edgeStyle=orthogonalEdgeStyle;rounded=0;orthogonalLoop=1;jettySize=auto;html=1;entryX=1;entryY=0.5;entryDx=0;entryDy=0;endArrow=none;endFill=0;" parent="WIyWlLk6GJQsqaUBKTNV-1" source="j27dEvf3UT6huoDrGfdZ-210" target="j27dEvf3UT6huoDrGfdZ-218" edge="1">
          <mxGeometry relative="1" as="geometry" />
        </mxCell>
        <mxCell id="j27dEvf3UT6huoDrGfdZ-244" style="edgeStyle=orthogonalEdgeStyle;rounded=0;orthogonalLoop=1;jettySize=auto;html=1;entryX=1;entryY=0.5;entryDx=0;entryDy=0;endArrow=none;endFill=0;" parent="WIyWlLk6GJQsqaUBKTNV-1" source="j27dEvf3UT6huoDrGfdZ-210" target="j27dEvf3UT6huoDrGfdZ-219" edge="1">
          <mxGeometry relative="1" as="geometry" />
        </mxCell>
        <mxCell id="j27dEvf3UT6huoDrGfdZ-245" style="edgeStyle=orthogonalEdgeStyle;rounded=0;orthogonalLoop=1;jettySize=auto;html=1;entryX=1;entryY=0.5;entryDx=0;entryDy=0;endArrow=none;endFill=0;" parent="WIyWlLk6GJQsqaUBKTNV-1" source="j27dEvf3UT6huoDrGfdZ-210" target="j27dEvf3UT6huoDrGfdZ-220" edge="1">
          <mxGeometry relative="1" as="geometry" />
        </mxCell>
        <mxCell id="j27dEvf3UT6huoDrGfdZ-246" style="edgeStyle=orthogonalEdgeStyle;rounded=0;orthogonalLoop=1;jettySize=auto;html=1;entryX=1;entryY=0.5;entryDx=0;entryDy=0;endArrow=none;endFill=0;" parent="WIyWlLk6GJQsqaUBKTNV-1" source="j27dEvf3UT6huoDrGfdZ-210" target="j27dEvf3UT6huoDrGfdZ-225" edge="1">
          <mxGeometry relative="1" as="geometry" />
        </mxCell>
        <mxCell id="j27dEvf3UT6huoDrGfdZ-247" style="edgeStyle=orthogonalEdgeStyle;rounded=0;orthogonalLoop=1;jettySize=auto;html=1;entryX=1;entryY=0.5;entryDx=0;entryDy=0;endArrow=none;endFill=0;" parent="WIyWlLk6GJQsqaUBKTNV-1" source="j27dEvf3UT6huoDrGfdZ-210" target="j27dEvf3UT6huoDrGfdZ-224" edge="1">
          <mxGeometry relative="1" as="geometry" />
        </mxCell>
        <mxCell id="j27dEvf3UT6huoDrGfdZ-248" style="edgeStyle=orthogonalEdgeStyle;rounded=0;orthogonalLoop=1;jettySize=auto;html=1;entryX=1;entryY=0.5;entryDx=0;entryDy=0;endArrow=none;endFill=0;" parent="WIyWlLk6GJQsqaUBKTNV-1" source="j27dEvf3UT6huoDrGfdZ-210" target="j27dEvf3UT6huoDrGfdZ-222" edge="1">
          <mxGeometry relative="1" as="geometry" />
        </mxCell>
        <mxCell id="j27dEvf3UT6huoDrGfdZ-250" style="edgeStyle=orthogonalEdgeStyle;rounded=0;orthogonalLoop=1;jettySize=auto;html=1;entryX=1;entryY=0.5;entryDx=0;entryDy=0;endArrow=none;endFill=0;" parent="WIyWlLk6GJQsqaUBKTNV-1" source="j27dEvf3UT6huoDrGfdZ-210" target="j27dEvf3UT6huoDrGfdZ-236" edge="1">
          <mxGeometry relative="1" as="geometry" />
        </mxCell>
        <mxCell id="j27dEvf3UT6huoDrGfdZ-251" style="edgeStyle=orthogonalEdgeStyle;rounded=0;orthogonalLoop=1;jettySize=auto;html=1;entryX=0;entryY=0.5;entryDx=0;entryDy=0;endArrow=none;endFill=0;" parent="WIyWlLk6GJQsqaUBKTNV-1" source="j27dEvf3UT6huoDrGfdZ-210" target="j27dEvf3UT6huoDrGfdZ-223" edge="1">
          <mxGeometry relative="1" as="geometry" />
        </mxCell>
        <mxCell id="j27dEvf3UT6huoDrGfdZ-252" style="edgeStyle=orthogonalEdgeStyle;rounded=0;orthogonalLoop=1;jettySize=auto;html=1;entryX=0;entryY=0.5;entryDx=0;entryDy=0;endArrow=none;endFill=0;" parent="WIyWlLk6GJQsqaUBKTNV-1" source="j27dEvf3UT6huoDrGfdZ-210" target="j27dEvf3UT6huoDrGfdZ-226" edge="1">
          <mxGeometry relative="1" as="geometry" />
        </mxCell>
        <mxCell id="j27dEvf3UT6huoDrGfdZ-253" style="edgeStyle=orthogonalEdgeStyle;rounded=0;orthogonalLoop=1;jettySize=auto;html=1;entryX=0;entryY=0.5;entryDx=0;entryDy=0;endArrow=none;endFill=0;" parent="WIyWlLk6GJQsqaUBKTNV-1" source="j27dEvf3UT6huoDrGfdZ-210" target="j27dEvf3UT6huoDrGfdZ-227" edge="1">
          <mxGeometry relative="1" as="geometry" />
        </mxCell>
        <mxCell id="j27dEvf3UT6huoDrGfdZ-254" style="edgeStyle=orthogonalEdgeStyle;rounded=0;orthogonalLoop=1;jettySize=auto;html=1;entryX=0;entryY=0.5;entryDx=0;entryDy=0;endArrow=none;endFill=0;" parent="WIyWlLk6GJQsqaUBKTNV-1" source="j27dEvf3UT6huoDrGfdZ-210" target="j27dEvf3UT6huoDrGfdZ-229" edge="1">
          <mxGeometry relative="1" as="geometry" />
        </mxCell>
        <mxCell id="j27dEvf3UT6huoDrGfdZ-255" style="edgeStyle=orthogonalEdgeStyle;rounded=0;orthogonalLoop=1;jettySize=auto;html=1;entryX=0;entryY=0.5;entryDx=0;entryDy=0;endArrow=none;endFill=0;" parent="WIyWlLk6GJQsqaUBKTNV-1" source="j27dEvf3UT6huoDrGfdZ-210" target="j27dEvf3UT6huoDrGfdZ-231" edge="1">
          <mxGeometry relative="1" as="geometry" />
        </mxCell>
        <mxCell id="j27dEvf3UT6huoDrGfdZ-256" style="edgeStyle=orthogonalEdgeStyle;rounded=0;orthogonalLoop=1;jettySize=auto;html=1;entryX=0;entryY=0.5;entryDx=0;entryDy=0;endArrow=none;endFill=0;" parent="WIyWlLk6GJQsqaUBKTNV-1" source="j27dEvf3UT6huoDrGfdZ-210" target="j27dEvf3UT6huoDrGfdZ-232" edge="1">
          <mxGeometry relative="1" as="geometry" />
        </mxCell>
        <mxCell id="j27dEvf3UT6huoDrGfdZ-257" style="edgeStyle=orthogonalEdgeStyle;rounded=0;orthogonalLoop=1;jettySize=auto;html=1;entryX=0;entryY=0.5;entryDx=0;entryDy=0;endArrow=none;endFill=0;" parent="WIyWlLk6GJQsqaUBKTNV-1" source="j27dEvf3UT6huoDrGfdZ-210" target="j27dEvf3UT6huoDrGfdZ-233" edge="1">
          <mxGeometry relative="1" as="geometry" />
        </mxCell>
        <mxCell id="j27dEvf3UT6huoDrGfdZ-258" style="edgeStyle=orthogonalEdgeStyle;rounded=0;orthogonalLoop=1;jettySize=auto;html=1;entryX=0;entryY=0.5;entryDx=0;entryDy=0;endArrow=none;endFill=0;" parent="WIyWlLk6GJQsqaUBKTNV-1" source="j27dEvf3UT6huoDrGfdZ-210" target="j27dEvf3UT6huoDrGfdZ-234" edge="1">
          <mxGeometry relative="1" as="geometry" />
        </mxCell>
        <mxCell id="j27dEvf3UT6huoDrGfdZ-259" style="edgeStyle=orthogonalEdgeStyle;rounded=0;orthogonalLoop=1;jettySize=auto;html=1;entryX=0;entryY=0.5;entryDx=0;entryDy=0;endArrow=none;endFill=0;" parent="WIyWlLk6GJQsqaUBKTNV-1" source="j27dEvf3UT6huoDrGfdZ-210" target="j27dEvf3UT6huoDrGfdZ-237" edge="1">
          <mxGeometry relative="1" as="geometry" />
        </mxCell>
        <mxCell id="j27dEvf3UT6huoDrGfdZ-260" style="edgeStyle=orthogonalEdgeStyle;rounded=0;orthogonalLoop=1;jettySize=auto;html=1;entryX=0;entryY=0.5;entryDx=0;entryDy=0;endArrow=none;endFill=0;" parent="WIyWlLk6GJQsqaUBKTNV-1" source="j27dEvf3UT6huoDrGfdZ-210" target="j27dEvf3UT6huoDrGfdZ-235" edge="1">
          <mxGeometry relative="1" as="geometry" />
        </mxCell>
        <mxCell id="j27dEvf3UT6huoDrGfdZ-261" style="edgeStyle=orthogonalEdgeStyle;rounded=0;orthogonalLoop=1;jettySize=auto;html=1;entryX=0.5;entryY=0;entryDx=0;entryDy=0;endArrow=none;endFill=0;" parent="WIyWlLk6GJQsqaUBKTNV-1" source="j27dEvf3UT6huoDrGfdZ-210" target="j27dEvf3UT6huoDrGfdZ-213" edge="1">
          <mxGeometry relative="1" as="geometry" />
        </mxCell>
        <mxCell id="j27dEvf3UT6huoDrGfdZ-210" value="equipamentos" style="whiteSpace=wrap;html=1;align=center;" parent="WIyWlLk6GJQsqaUBKTNV-1" vertex="1">
          <mxGeometry x="1266" y="560" width="100" height="40" as="geometry" />
        </mxCell>
        <mxCell id="j27dEvf3UT6huoDrGfdZ-213" value="&lt;span style=&quot;border-bottom: 1px dotted&quot;&gt;nome-equipamen&lt;/span&gt;" style="ellipse;whiteSpace=wrap;html=1;align=center;" parent="WIyWlLk6GJQsqaUBKTNV-1" vertex="1">
          <mxGeometry x="1266" y="670" width="100" height="40" as="geometry" />
        </mxCell>
        <mxCell id="j27dEvf3UT6huoDrGfdZ-215" value="categoria" style="ellipse;whiteSpace=wrap;html=1;align=center;" parent="WIyWlLk6GJQsqaUBKTNV-1" vertex="1">
          <mxGeometry x="1125" y="560" width="100" height="40" as="geometry" />
        </mxCell>
        <mxCell id="j27dEvf3UT6huoDrGfdZ-216" value="tipo_ataque" style="ellipse;whiteSpace=wrap;html=1;align=center;" parent="WIyWlLk6GJQsqaUBKTNV-1" vertex="1">
          <mxGeometry x="1125" y="600" width="100" height="40" as="geometry" />
        </mxCell>
        <mxCell id="j27dEvf3UT6huoDrGfdZ-217" value="dano_fisico" style="ellipse;whiteSpace=wrap;html=1;align=center;" parent="WIyWlLk6GJQsqaUBKTNV-1" vertex="1">
          <mxGeometry x="1125" y="640" width="100" height="40" as="geometry" />
        </mxCell>
        <mxCell id="j27dEvf3UT6huoDrGfdZ-218" value="dano_magico" style="ellipse;whiteSpace=wrap;html=1;align=center;" parent="WIyWlLk6GJQsqaUBKTNV-1" vertex="1">
          <mxGeometry x="1125" y="680" width="100" height="40" as="geometry" />
        </mxCell>
        <mxCell id="j27dEvf3UT6huoDrGfdZ-219" value="dano_eletrico" style="ellipse;whiteSpace=wrap;html=1;align=center;" parent="WIyWlLk6GJQsqaUBKTNV-1" vertex="1">
          <mxGeometry x="1125" y="720" width="100" height="40" as="geometry" />
        </mxCell>
        <mxCell id="j27dEvf3UT6huoDrGfdZ-220" value="dano_critico" style="ellipse;whiteSpace=wrap;html=1;align=center;" parent="WIyWlLk6GJQsqaUBKTNV-1" vertex="1">
          <mxGeometry x="1125" y="760" width="100" height="40" as="geometry" />
        </mxCell>
        <mxCell id="j27dEvf3UT6huoDrGfdZ-222" value="resistencia_fogo" style="ellipse;whiteSpace=wrap;html=1;align=center;" parent="WIyWlLk6GJQsqaUBKTNV-1" vertex="1">
          <mxGeometry x="1125" y="880" width="100" height="40" as="geometry" />
        </mxCell>
        <mxCell id="j27dEvf3UT6huoDrGfdZ-223" value="resistencia_elet" style="ellipse;whiteSpace=wrap;html=1;align=center;" parent="WIyWlLk6GJQsqaUBKTNV-1" vertex="1">
          <mxGeometry x="1405" y="560" width="100" height="40" as="geometry" />
        </mxCell>
        <mxCell id="j27dEvf3UT6huoDrGfdZ-224" value="resistencia_magic" style="ellipse;whiteSpace=wrap;html=1;align=center;" parent="WIyWlLk6GJQsqaUBKTNV-1" vertex="1">
          <mxGeometry x="1126" y="840" width="100" height="40" as="geometry" />
        </mxCell>
        <mxCell id="j27dEvf3UT6huoDrGfdZ-225" value="resistencia_fis" style="ellipse;whiteSpace=wrap;html=1;align=center;" parent="WIyWlLk6GJQsqaUBKTNV-1" vertex="1">
          <mxGeometry x="1126" y="800" width="100" height="40" as="geometry" />
        </mxCell>
        <mxCell id="j27dEvf3UT6huoDrGfdZ-226" value="satabilidade" style="ellipse;whiteSpace=wrap;html=1;align=center;" parent="WIyWlLk6GJQsqaUBKTNV-1" vertex="1">
          <mxGeometry x="1406" y="600" width="100" height="40" as="geometry" />
        </mxCell>
        <mxCell id="j27dEvf3UT6huoDrGfdZ-227" value="peso" style="ellipse;whiteSpace=wrap;html=1;align=center;" parent="WIyWlLk6GJQsqaUBKTNV-1" vertex="1">
          <mxGeometry x="1406" y="640" width="100" height="40" as="geometry" />
        </mxCell>
        <mxCell id="j27dEvf3UT6huoDrGfdZ-229" value="bonus_força" style="ellipse;whiteSpace=wrap;html=1;align=center;" parent="WIyWlLk6GJQsqaUBKTNV-1" vertex="1">
          <mxGeometry x="1405" y="680" width="100" height="40" as="geometry" />
        </mxCell>
        <mxCell id="j27dEvf3UT6huoDrGfdZ-231" value="bonus_destreza" style="ellipse;whiteSpace=wrap;html=1;align=center;" parent="WIyWlLk6GJQsqaUBKTNV-1" vertex="1">
          <mxGeometry x="1406" y="720" width="100" height="40" as="geometry" />
        </mxCell>
        <mxCell id="j27dEvf3UT6huoDrGfdZ-232" value="bonus_inteli" style="ellipse;whiteSpace=wrap;html=1;align=center;" parent="WIyWlLk6GJQsqaUBKTNV-1" vertex="1">
          <mxGeometry x="1405" y="760" width="100" height="40" as="geometry" />
        </mxCell>
        <mxCell id="j27dEvf3UT6huoDrGfdZ-233" value="bonus_fe" style="ellipse;whiteSpace=wrap;html=1;align=center;" parent="WIyWlLk6GJQsqaUBKTNV-1" vertex="1">
          <mxGeometry x="1405" y="800" width="100" height="40" as="geometry" />
        </mxCell>
        <mxCell id="j27dEvf3UT6huoDrGfdZ-234" value="requisito_força" style="ellipse;whiteSpace=wrap;html=1;align=center;" parent="WIyWlLk6GJQsqaUBKTNV-1" vertex="1">
          <mxGeometry x="1405" y="840" width="100" height="40" as="geometry" />
        </mxCell>
        <mxCell id="j27dEvf3UT6huoDrGfdZ-235" value="requisito_intelig" style="ellipse;whiteSpace=wrap;html=1;align=center;" parent="WIyWlLk6GJQsqaUBKTNV-1" vertex="1">
          <mxGeometry x="1406" y="920" width="100" height="40" as="geometry" />
        </mxCell>
        <mxCell id="j27dEvf3UT6huoDrGfdZ-236" value="requisito_fe" style="ellipse;whiteSpace=wrap;html=1;align=center;" parent="WIyWlLk6GJQsqaUBKTNV-1" vertex="1">
          <mxGeometry x="1126" y="920" width="100" height="40" as="geometry" />
        </mxCell>
        <mxCell id="j27dEvf3UT6huoDrGfdZ-237" value="requisito_destre" style="ellipse;whiteSpace=wrap;html=1;align=center;" parent="WIyWlLk6GJQsqaUBKTNV-1" vertex="1">
          <mxGeometry x="1406" y="880" width="100" height="40" as="geometry" />
        </mxCell>
        <mxCell id="j27dEvf3UT6huoDrGfdZ-269" style="edgeStyle=orthogonalEdgeStyle;rounded=0;orthogonalLoop=1;jettySize=auto;html=1;entryX=0.5;entryY=1;entryDx=0;entryDy=0;endArrow=none;endFill=0;exitX=0.5;exitY=0;exitDx=0;exitDy=0;" parent="WIyWlLk6GJQsqaUBKTNV-1" source="j27dEvf3UT6huoDrGfdZ-265" target="j27dEvf3UT6huoDrGfdZ-267" edge="1">
          <mxGeometry relative="1" as="geometry" />
        </mxCell>
        <mxCell id="j27dEvf3UT6huoDrGfdZ-265" value="npc" style="whiteSpace=wrap;html=1;align=center;" parent="WIyWlLk6GJQsqaUBKTNV-1" vertex="1">
          <mxGeometry x="580" y="-470" width="100" height="40" as="geometry" />
        </mxCell>
        <mxCell id="j27dEvf3UT6huoDrGfdZ-267" value="nome" style="ellipse;whiteSpace=wrap;html=1;align=center;fontStyle=4;" parent="WIyWlLk6GJQsqaUBKTNV-1" vertex="1">
          <mxGeometry x="580" y="-540" width="100" height="40" as="geometry" />
        </mxCell>
        <mxCell id="j27dEvf3UT6huoDrGfdZ-270" value="vende" style="shape=rhombus;perimeter=rhombusPerimeter;whiteSpace=wrap;html=1;align=center;" parent="WIyWlLk6GJQsqaUBKTNV-1" vertex="1">
          <mxGeometry x="640" y="-190" width="120" height="60" as="geometry" />
        </mxCell>
        <mxCell id="j27dEvf3UT6huoDrGfdZ-288" style="edgeStyle=orthogonalEdgeStyle;rounded=0;orthogonalLoop=1;jettySize=auto;html=1;entryX=1;entryY=0.5;entryDx=0;entryDy=0;exitX=0;exitY=0.5;exitDx=0;exitDy=0;endArrow=none;endFill=0;" parent="WIyWlLk6GJQsqaUBKTNV-1" source="j27dEvf3UT6huoDrGfdZ-281" target="j27dEvf3UT6huoDrGfdZ-287" edge="1">
          <mxGeometry relative="1" as="geometry" />
        </mxCell>
        <mxCell id="j27dEvf3UT6huoDrGfdZ-281" value="dropa" style="shape=rhombus;perimeter=rhombusPerimeter;whiteSpace=wrap;html=1;align=center;" parent="WIyWlLk6GJQsqaUBKTNV-1" vertex="1">
          <mxGeometry x="540" y="-100" width="120" height="60" as="geometry" />
        </mxCell>
        <mxCell id="j27dEvf3UT6huoDrGfdZ-287" value="chance" style="ellipse;whiteSpace=wrap;html=1;align=center;" parent="WIyWlLk6GJQsqaUBKTNV-1" vertex="1">
          <mxGeometry x="420" y="-90" width="100" height="40" as="geometry" />
        </mxCell>
        <mxCell id="j27dEvf3UT6huoDrGfdZ-305" value="boss" style="whiteSpace=wrap;html=1;align=center;" parent="WIyWlLk6GJQsqaUBKTNV-1" vertex="1">
          <mxGeometry x="1125" y="-310" width="100" height="40" as="geometry" />
        </mxCell>
        <mxCell id="j27dEvf3UT6huoDrGfdZ-353" style="edgeStyle=orthogonalEdgeStyle;rounded=0;orthogonalLoop=1;jettySize=auto;html=1;entryX=1;entryY=0.5;entryDx=0;entryDy=0;endArrow=none;endFill=0;" parent="WIyWlLk6GJQsqaUBKTNV-1" source="j27dEvf3UT6huoDrGfdZ-318" target="j27dEvf3UT6huoDrGfdZ-346" edge="1">
          <mxGeometry relative="1" as="geometry" />
        </mxCell>
        <mxCell id="j27dEvf3UT6huoDrGfdZ-354" style="edgeStyle=orthogonalEdgeStyle;rounded=0;orthogonalLoop=1;jettySize=auto;html=1;entryX=0;entryY=0.5;entryDx=0;entryDy=0;endArrow=none;endFill=0;" parent="WIyWlLk6GJQsqaUBKTNV-1" source="j27dEvf3UT6huoDrGfdZ-318" target="j27dEvf3UT6huoDrGfdZ-341" edge="1">
          <mxGeometry relative="1" as="geometry" />
        </mxCell>
        <mxCell id="j27dEvf3UT6huoDrGfdZ-355" style="edgeStyle=orthogonalEdgeStyle;rounded=0;orthogonalLoop=1;jettySize=auto;html=1;entryX=1;entryY=0.5;entryDx=0;entryDy=0;endArrow=none;endFill=0;" parent="WIyWlLk6GJQsqaUBKTNV-1" source="j27dEvf3UT6huoDrGfdZ-318" target="j27dEvf3UT6huoDrGfdZ-343" edge="1">
          <mxGeometry relative="1" as="geometry" />
        </mxCell>
        <mxCell id="j27dEvf3UT6huoDrGfdZ-356" style="edgeStyle=orthogonalEdgeStyle;rounded=0;orthogonalLoop=1;jettySize=auto;html=1;entryX=1;entryY=0.5;entryDx=0;entryDy=0;endArrow=none;endFill=0;" parent="WIyWlLk6GJQsqaUBKTNV-1" source="j27dEvf3UT6huoDrGfdZ-318" target="j27dEvf3UT6huoDrGfdZ-352" edge="1">
          <mxGeometry relative="1" as="geometry" />
        </mxCell>
        <mxCell id="j27dEvf3UT6huoDrGfdZ-357" style="edgeStyle=orthogonalEdgeStyle;rounded=0;orthogonalLoop=1;jettySize=auto;html=1;entryX=1;entryY=0.5;entryDx=0;entryDy=0;endArrow=none;endFill=0;" parent="WIyWlLk6GJQsqaUBKTNV-1" source="j27dEvf3UT6huoDrGfdZ-318" target="j27dEvf3UT6huoDrGfdZ-351" edge="1">
          <mxGeometry relative="1" as="geometry" />
        </mxCell>
        <mxCell id="j27dEvf3UT6huoDrGfdZ-358" style="edgeStyle=orthogonalEdgeStyle;rounded=0;orthogonalLoop=1;jettySize=auto;html=1;entryX=1;entryY=0.5;entryDx=0;entryDy=0;endArrow=none;endFill=0;" parent="WIyWlLk6GJQsqaUBKTNV-1" source="j27dEvf3UT6huoDrGfdZ-318" target="j27dEvf3UT6huoDrGfdZ-349" edge="1">
          <mxGeometry relative="1" as="geometry" />
        </mxCell>
        <mxCell id="j27dEvf3UT6huoDrGfdZ-359" style="edgeStyle=orthogonalEdgeStyle;rounded=0;orthogonalLoop=1;jettySize=auto;html=1;entryX=1;entryY=0.5;entryDx=0;entryDy=0;endArrow=none;endFill=0;" parent="WIyWlLk6GJQsqaUBKTNV-1" source="j27dEvf3UT6huoDrGfdZ-318" target="j27dEvf3UT6huoDrGfdZ-350" edge="1">
          <mxGeometry relative="1" as="geometry" />
        </mxCell>
        <mxCell id="j27dEvf3UT6huoDrGfdZ-360" style="edgeStyle=orthogonalEdgeStyle;rounded=0;orthogonalLoop=1;jettySize=auto;html=1;entryX=0;entryY=0.5;entryDx=0;entryDy=0;endArrow=none;endFill=0;" parent="WIyWlLk6GJQsqaUBKTNV-1" source="j27dEvf3UT6huoDrGfdZ-318" target="j27dEvf3UT6huoDrGfdZ-340" edge="1">
          <mxGeometry relative="1" as="geometry" />
        </mxCell>
        <mxCell id="j27dEvf3UT6huoDrGfdZ-361" style="edgeStyle=orthogonalEdgeStyle;rounded=0;orthogonalLoop=1;jettySize=auto;html=1;entryX=0;entryY=0.5;entryDx=0;entryDy=0;endArrow=none;endFill=0;" parent="WIyWlLk6GJQsqaUBKTNV-1" source="j27dEvf3UT6huoDrGfdZ-318" target="j27dEvf3UT6huoDrGfdZ-348" edge="1">
          <mxGeometry relative="1" as="geometry" />
        </mxCell>
        <mxCell id="j27dEvf3UT6huoDrGfdZ-362" style="edgeStyle=orthogonalEdgeStyle;rounded=0;orthogonalLoop=1;jettySize=auto;html=1;entryX=0;entryY=0.5;entryDx=0;entryDy=0;endArrow=none;endFill=0;" parent="WIyWlLk6GJQsqaUBKTNV-1" source="j27dEvf3UT6huoDrGfdZ-318" target="j27dEvf3UT6huoDrGfdZ-347" edge="1">
          <mxGeometry relative="1" as="geometry" />
        </mxCell>
        <mxCell id="j27dEvf3UT6huoDrGfdZ-363" style="edgeStyle=orthogonalEdgeStyle;rounded=0;orthogonalLoop=1;jettySize=auto;html=1;entryX=0;entryY=0.5;entryDx=0;entryDy=0;endArrow=none;endFill=0;" parent="WIyWlLk6GJQsqaUBKTNV-1" source="j27dEvf3UT6huoDrGfdZ-318" target="j27dEvf3UT6huoDrGfdZ-344" edge="1">
          <mxGeometry relative="1" as="geometry" />
        </mxCell>
        <mxCell id="j27dEvf3UT6huoDrGfdZ-364" style="edgeStyle=orthogonalEdgeStyle;rounded=0;orthogonalLoop=1;jettySize=auto;html=1;entryX=0;entryY=0.5;entryDx=0;entryDy=0;endArrow=none;endFill=0;" parent="WIyWlLk6GJQsqaUBKTNV-1" source="j27dEvf3UT6huoDrGfdZ-318" target="j27dEvf3UT6huoDrGfdZ-345" edge="1">
          <mxGeometry relative="1" as="geometry" />
        </mxCell>
        <mxCell id="j27dEvf3UT6huoDrGfdZ-318" value="monstro" style="whiteSpace=wrap;html=1;align=center;" parent="WIyWlLk6GJQsqaUBKTNV-1" vertex="1">
          <mxGeometry x="420" y="-700" width="100" height="40" as="geometry" />
        </mxCell>
        <mxCell id="j27dEvf3UT6huoDrGfdZ-330" value="HP" style="ellipse;whiteSpace=wrap;html=1;align=center;" parent="WIyWlLk6GJQsqaUBKTNV-1" vertex="1">
          <mxGeometry x="1225" y="-250" width="100" height="40" as="geometry" />
        </mxCell>
        <mxCell id="j27dEvf3UT6huoDrGfdZ-331" value="nome" style="ellipse;whiteSpace=wrap;html=1;align=center;fontStyle=4;" parent="WIyWlLk6GJQsqaUBKTNV-1" vertex="1">
          <mxGeometry x="1125" y="-170" width="100" height="40" as="geometry" />
        </mxCell>
        <mxCell id="j27dEvf3UT6huoDrGfdZ-332" value="HP_NG+&lt;span style=&quot;white-space: pre;&quot;&gt; &lt;/span&gt;" style="ellipse;whiteSpace=wrap;html=1;align=center;" parent="WIyWlLk6GJQsqaUBKTNV-1" vertex="1">
          <mxGeometry x="1025" y="-250" width="100" height="40" as="geometry" />
        </mxCell>
        <mxCell id="j27dEvf3UT6huoDrGfdZ-333" value="almas" style="ellipse;whiteSpace=wrap;html=1;align=center;" parent="WIyWlLk6GJQsqaUBKTNV-1" vertex="1">
          <mxGeometry x="1025" y="-210" width="100" height="40" as="geometry" />
        </mxCell>
        <mxCell id="j27dEvf3UT6huoDrGfdZ-334" value="almas_NG+" style="ellipse;whiteSpace=wrap;html=1;align=center;" parent="WIyWlLk6GJQsqaUBKTNV-1" vertex="1">
          <mxGeometry x="1225" y="-209" width="100" height="40" as="geometry" />
        </mxCell>
        <mxCell id="j27dEvf3UT6huoDrGfdZ-340" value="classe" style="ellipse;whiteSpace=wrap;html=1;align=center;" parent="WIyWlLk6GJQsqaUBKTNV-1" vertex="1">
          <mxGeometry x="520" y="-900" width="100" height="40" as="geometry" />
        </mxCell>
        <mxCell id="j27dEvf3UT6huoDrGfdZ-341" value="nome" style="ellipse;whiteSpace=wrap;html=1;align=center;fontStyle=4;" parent="WIyWlLk6GJQsqaUBKTNV-1" vertex="1">
          <mxGeometry x="520" y="-940" width="100" height="40" as="geometry" />
        </mxCell>
        <mxCell id="j27dEvf3UT6huoDrGfdZ-343" value="resistencia_fisic" style="ellipse;whiteSpace=wrap;html=1;align=center;" parent="WIyWlLk6GJQsqaUBKTNV-1" vertex="1">
          <mxGeometry x="320" y="-900" width="100" height="40" as="geometry" />
        </mxCell>
        <mxCell id="j27dEvf3UT6huoDrGfdZ-344" value="resistencia_impa" style="ellipse;whiteSpace=wrap;html=1;align=center;" parent="WIyWlLk6GJQsqaUBKTNV-1" vertex="1">
          <mxGeometry x="520" y="-780" width="100" height="40" as="geometry" />
        </mxCell>
        <mxCell id="j27dEvf3UT6huoDrGfdZ-345" value="resistencia_corte" style="ellipse;whiteSpace=wrap;html=1;align=center;" parent="WIyWlLk6GJQsqaUBKTNV-1" vertex="1">
          <mxGeometry x="520" y="-740" width="100" height="40" as="geometry" />
        </mxCell>
        <mxCell id="j27dEvf3UT6huoDrGfdZ-346" value="resistencia_perf" style="ellipse;whiteSpace=wrap;html=1;align=center;" parent="WIyWlLk6GJQsqaUBKTNV-1" vertex="1">
          <mxGeometry x="320" y="-940" width="100" height="40" as="geometry" />
        </mxCell>
        <mxCell id="j27dEvf3UT6huoDrGfdZ-347" value="resistencia_magi" style="ellipse;whiteSpace=wrap;html=1;align=center;" parent="WIyWlLk6GJQsqaUBKTNV-1" vertex="1">
          <mxGeometry x="520" y="-820" width="100" height="40" as="geometry" />
        </mxCell>
        <mxCell id="j27dEvf3UT6huoDrGfdZ-348" value="resistencia_fogo" style="ellipse;whiteSpace=wrap;html=1;align=center;" parent="WIyWlLk6GJQsqaUBKTNV-1" vertex="1">
          <mxGeometry x="520" y="-860" width="100" height="40" as="geometry" />
        </mxCell>
        <mxCell id="j27dEvf3UT6huoDrGfdZ-349" value="resistencia_elet" style="ellipse;whiteSpace=wrap;html=1;align=center;" parent="WIyWlLk6GJQsqaUBKTNV-1" vertex="1">
          <mxGeometry x="320" y="-780" width="100" height="40" as="geometry" />
        </mxCell>
        <mxCell id="j27dEvf3UT6huoDrGfdZ-350" value="resistencia_pois" style="ellipse;whiteSpace=wrap;html=1;align=center;" parent="WIyWlLk6GJQsqaUBKTNV-1" vertex="1">
          <mxGeometry x="320" y="-740" width="100" height="40" as="geometry" />
        </mxCell>
        <mxCell id="j27dEvf3UT6huoDrGfdZ-351" value="resistencia_toxic" style="ellipse;whiteSpace=wrap;html=1;align=center;" parent="WIyWlLk6GJQsqaUBKTNV-1" vertex="1">
          <mxGeometry x="320" y="-820" width="100" height="40" as="geometry" />
        </mxCell>
        <mxCell id="j27dEvf3UT6huoDrGfdZ-352" value="resistencia_bleed" style="ellipse;whiteSpace=wrap;html=1;align=center;" parent="WIyWlLk6GJQsqaUBKTNV-1" vertex="1">
          <mxGeometry x="320" y="-860" width="100" height="40" as="geometry" />
        </mxCell>
        <mxCell id="j27dEvf3UT6huoDrGfdZ-385" value="" style="edgeStyle=orthogonalEdgeStyle;rounded=0;orthogonalLoop=1;jettySize=auto;html=1;endArrow=none;endFill=0;" parent="WIyWlLk6GJQsqaUBKTNV-1" source="j27dEvf3UT6huoDrGfdZ-382" target="j27dEvf3UT6huoDrGfdZ-383" edge="1">
          <mxGeometry relative="1" as="geometry" />
        </mxCell>
        <mxCell id="j27dEvf3UT6huoDrGfdZ-382" value="encontra" style="shape=rhombus;perimeter=rhombusPerimeter;whiteSpace=wrap;html=1;align=center;" parent="WIyWlLk6GJQsqaUBKTNV-1" vertex="1">
          <mxGeometry x="817" y="-10" width="120" height="60" as="geometry" />
        </mxCell>
        <mxCell id="j27dEvf3UT6huoDrGfdZ-383" value="lugar" style="ellipse;whiteSpace=wrap;html=1;align=center;" parent="WIyWlLk6GJQsqaUBKTNV-1" vertex="1">
          <mxGeometry x="827" y="70" width="100" height="40" as="geometry" />
        </mxCell>
        <mxCell id="ijFL162SzWKfCgBAEUno-400" value="quantidade" style="ellipse;whiteSpace=wrap;html=1;align=center;" vertex="1" parent="WIyWlLk6GJQsqaUBKTNV-1">
          <mxGeometry x="120" y="260" width="100" height="40" as="geometry" />
        </mxCell>
        <mxCell id="ijFL162SzWKfCgBAEUno-402" value="inventario" style="text;html=1;align=center;verticalAlign=middle;resizable=0;points=[];autosize=1;strokeColor=none;fillColor=none;" vertex="1" parent="WIyWlLk6GJQsqaUBKTNV-1">
          <mxGeometry x="334" y="230" width="80" height="30" as="geometry" />
        </mxCell>
        <mxCell id="ijFL162SzWKfCgBAEUno-403" value="" style="endArrow=none;html=1;rounded=0;exitX=1;exitY=0;exitDx=0;exitDy=0;entryX=0.5;entryY=1;entryDx=0;entryDy=0;edgeStyle=orthogonalEdgeStyle;" edge="1" parent="WIyWlLk6GJQsqaUBKTNV-1" source="j27dEvf3UT6huoDrGfdZ-13" target="j27dEvf3UT6huoDrGfdZ-15">
          <mxGeometry relative="1" as="geometry">
            <mxPoint x="600" y="290" as="sourcePoint" />
            <mxPoint x="760" y="290" as="targetPoint" />
          </mxGeometry>
        </mxCell>
        <mxCell id="ijFL162SzWKfCgBAEUno-404" value="" style="endArrow=none;html=1;rounded=0;exitX=1;exitY=0;exitDx=0;exitDy=0;entryX=0.5;entryY=1;entryDx=0;entryDy=0;edgeStyle=orthogonalEdgeStyle;" edge="1" parent="WIyWlLk6GJQsqaUBKTNV-1" source="j27dEvf3UT6huoDrGfdZ-13" target="j27dEvf3UT6huoDrGfdZ-14">
          <mxGeometry relative="1" as="geometry">
            <mxPoint x="600" y="290" as="sourcePoint" />
            <mxPoint x="760" y="290" as="targetPoint" />
          </mxGeometry>
        </mxCell>
        <mxCell id="ijFL162SzWKfCgBAEUno-406" value="d" style="ellipse;whiteSpace=wrap;html=1;aspect=fixed;" vertex="1" parent="WIyWlLk6GJQsqaUBKTNV-1">
          <mxGeometry x="1300" y="260" width="20" height="20" as="geometry" />
        </mxCell>
        <mxCell id="ijFL162SzWKfCgBAEUno-407" value="" style="endArrow=none;html=1;rounded=0;exitX=1;exitY=0.5;exitDx=0;exitDy=0;entryX=0;entryY=0.5;entryDx=0;entryDy=0;shape=link;" edge="1" parent="WIyWlLk6GJQsqaUBKTNV-1" source="j27dEvf3UT6huoDrGfdZ-13" target="ijFL162SzWKfCgBAEUno-406">
          <mxGeometry relative="1" as="geometry">
            <mxPoint x="990" y="360" as="sourcePoint" />
            <mxPoint x="1150" y="360" as="targetPoint" />
          </mxGeometry>
        </mxCell>
        <mxCell id="ijFL162SzWKfCgBAEUno-411" value="" style="endArrow=none;html=1;rounded=0;exitX=0.5;exitY=1;exitDx=0;exitDy=0;entryX=0.5;entryY=0;entryDx=0;entryDy=0;" edge="1" parent="WIyWlLk6GJQsqaUBKTNV-1" source="ijFL162SzWKfCgBAEUno-406" target="j27dEvf3UT6huoDrGfdZ-169">
          <mxGeometry relative="1" as="geometry">
            <mxPoint x="1330" y="340" as="sourcePoint" />
            <mxPoint x="1490" y="340" as="targetPoint" />
          </mxGeometry>
        </mxCell>
        <mxCell id="ijFL162SzWKfCgBAEUno-412" value="" style="endArrow=none;html=1;rounded=0;exitX=0.5;exitY=1;exitDx=0;exitDy=0;entryX=0.5;entryY=0;entryDx=0;entryDy=0;" edge="1" parent="WIyWlLk6GJQsqaUBKTNV-1" source="ijFL162SzWKfCgBAEUno-406" target="j27dEvf3UT6huoDrGfdZ-210">
          <mxGeometry x="1310" y="370" relative="1" as="geometry">
            <mxPoint x="1330" y="340" as="sourcePoint" />
            <mxPoint x="1490" y="340" as="targetPoint" />
          </mxGeometry>
        </mxCell>
        <mxCell id="ijFL162SzWKfCgBAEUno-413" value="" style="endArrow=none;html=1;rounded=0;entryX=0.5;entryY=0;entryDx=0;entryDy=0;exitX=0.5;exitY=1;exitDx=0;exitDy=0;" edge="1" parent="WIyWlLk6GJQsqaUBKTNV-1" source="ijFL162SzWKfCgBAEUno-406" target="j27dEvf3UT6huoDrGfdZ-149">
          <mxGeometry relative="1" as="geometry">
            <mxPoint x="1360" y="270" as="sourcePoint" />
            <mxPoint x="1490" y="340" as="targetPoint" />
          </mxGeometry>
        </mxCell>
        <mxCell id="ijFL162SzWKfCgBAEUno-431" value="entidade" style="whiteSpace=wrap;html=1;align=center;" vertex="1" parent="WIyWlLk6GJQsqaUBKTNV-1">
          <mxGeometry x="550" y="-265" width="100" height="40" as="geometry" />
        </mxCell>
        <mxCell id="ijFL162SzWKfCgBAEUno-434" value="" style="endArrow=none;html=1;rounded=0;exitX=0.5;exitY=0;exitDx=0;exitDy=0;" edge="1" parent="WIyWlLk6GJQsqaUBKTNV-1" source="j27dEvf3UT6huoDrGfdZ-331">
          <mxGeometry relative="1" as="geometry">
            <mxPoint x="1415" y="-301" as="sourcePoint" />
            <mxPoint x="1175" y="-270" as="targetPoint" />
          </mxGeometry>
        </mxCell>
        <mxCell id="ijFL162SzWKfCgBAEUno-436" value="" style="endArrow=none;html=1;rounded=0;exitX=0;exitY=0.5;exitDx=0;exitDy=0;" edge="1" parent="WIyWlLk6GJQsqaUBKTNV-1" source="j27dEvf3UT6huoDrGfdZ-330">
          <mxGeometry relative="1" as="geometry">
            <mxPoint x="1185" y="-381" as="sourcePoint" />
            <mxPoint x="1175" y="-270" as="targetPoint" />
            <Array as="points">
              <mxPoint x="1175" y="-230" />
            </Array>
          </mxGeometry>
        </mxCell>
        <mxCell id="ijFL162SzWKfCgBAEUno-437" value="" style="endArrow=none;html=1;rounded=0;exitX=0;exitY=0.5;exitDx=0;exitDy=0;" edge="1" parent="WIyWlLk6GJQsqaUBKTNV-1" source="j27dEvf3UT6huoDrGfdZ-334">
          <mxGeometry relative="1" as="geometry">
            <mxPoint x="1195" y="-371" as="sourcePoint" />
            <mxPoint x="1175" y="-270" as="targetPoint" />
            <Array as="points">
              <mxPoint x="1175" y="-190" />
            </Array>
          </mxGeometry>
        </mxCell>
        <mxCell id="ijFL162SzWKfCgBAEUno-438" value="" style="endArrow=none;html=1;rounded=0;exitX=1;exitY=0.5;exitDx=0;exitDy=0;" edge="1" parent="WIyWlLk6GJQsqaUBKTNV-1" source="j27dEvf3UT6huoDrGfdZ-332">
          <mxGeometry relative="1" as="geometry">
            <mxPoint x="1205" y="-361" as="sourcePoint" />
            <mxPoint x="1175" y="-270" as="targetPoint" />
            <Array as="points">
              <mxPoint x="1175" y="-230" />
            </Array>
          </mxGeometry>
        </mxCell>
        <mxCell id="ijFL162SzWKfCgBAEUno-439" value="" style="endArrow=none;html=1;rounded=0;exitX=1;exitY=0.5;exitDx=0;exitDy=0;" edge="1" parent="WIyWlLk6GJQsqaUBKTNV-1" source="j27dEvf3UT6huoDrGfdZ-333">
          <mxGeometry relative="1" as="geometry">
            <mxPoint x="1215" y="-351" as="sourcePoint" />
            <mxPoint x="1175" y="-270" as="targetPoint" />
            <Array as="points">
              <mxPoint x="1175" y="-190" />
            </Array>
          </mxGeometry>
        </mxCell>
        <mxCell id="ijFL162SzWKfCgBAEUno-441" value="d" style="ellipse;whiteSpace=wrap;html=1;aspect=fixed;" vertex="1" parent="WIyWlLk6GJQsqaUBKTNV-1">
          <mxGeometry x="480" y="-320" width="20" height="20" as="geometry" />
        </mxCell>
        <mxCell id="ijFL162SzWKfCgBAEUno-442" value="" style="endArrow=none;html=1;rounded=0;exitX=0.5;exitY=1;exitDx=0;exitDy=0;entryX=0;entryY=0.5;entryDx=0;entryDy=0;shape=link;" edge="1" parent="WIyWlLk6GJQsqaUBKTNV-1" source="ijFL162SzWKfCgBAEUno-441" target="ijFL162SzWKfCgBAEUno-431">
          <mxGeometry relative="1" as="geometry">
            <mxPoint x="400" y="-350" as="sourcePoint" />
            <mxPoint x="560" y="-350" as="targetPoint" />
            <Array as="points">
              <mxPoint x="490" y="-245" />
            </Array>
          </mxGeometry>
        </mxCell>
        <mxCell id="ijFL162SzWKfCgBAEUno-444" value="" style="endArrow=none;html=1;rounded=0;entryX=0.5;entryY=1;entryDx=0;entryDy=0;exitX=0.5;exitY=0;exitDx=0;exitDy=0;edgeStyle=orthogonalEdgeStyle;" edge="1" parent="WIyWlLk6GJQsqaUBKTNV-1" source="ijFL162SzWKfCgBAEUno-441" target="j27dEvf3UT6huoDrGfdZ-265">
          <mxGeometry relative="1" as="geometry">
            <mxPoint x="490" y="-330" as="sourcePoint" />
            <mxPoint x="630" y="-320" as="targetPoint" />
            <Array as="points">
              <mxPoint x="490" y="-330" />
              <mxPoint x="630" y="-330" />
            </Array>
          </mxGeometry>
        </mxCell>
        <mxCell id="ijFL162SzWKfCgBAEUno-445" value="" style="endArrow=none;html=1;rounded=0;entryX=1;entryY=0.5;entryDx=0;entryDy=0;edgeStyle=orthogonalEdgeStyle;exitX=0;exitY=0.25;exitDx=0;exitDy=0;" edge="1" parent="WIyWlLk6GJQsqaUBKTNV-1" source="j27dEvf3UT6huoDrGfdZ-305" target="ijFL162SzWKfCgBAEUno-441">
          <mxGeometry relative="1" as="geometry">
            <mxPoint x="200" y="-130" as="sourcePoint" />
            <mxPoint x="630" y="-320" as="targetPoint" />
            <Array as="points">
              <mxPoint x="1125" y="-310" />
            </Array>
          </mxGeometry>
        </mxCell>
        <mxCell id="ijFL162SzWKfCgBAEUno-446" value="" style="endArrow=none;html=1;rounded=0;exitX=0.5;exitY=1;exitDx=0;exitDy=0;entryX=0;entryY=0.5;entryDx=0;entryDy=0;edgeStyle=orthogonalEdgeStyle;" edge="1" parent="WIyWlLk6GJQsqaUBKTNV-1" source="j27dEvf3UT6huoDrGfdZ-318" target="ijFL162SzWKfCgBAEUno-441">
          <mxGeometry relative="1" as="geometry">
            <mxPoint x="470" y="-320" as="sourcePoint" />
            <mxPoint x="630" y="-320" as="targetPoint" />
          </mxGeometry>
        </mxCell>
        <mxCell id="ijFL162SzWKfCgBAEUno-452" value="" style="fontSize=12;html=1;endArrow=ERmany;rounded=0;exitX=0.5;exitY=1;exitDx=0;exitDy=0;entryX=0.32;entryY=-0.025;entryDx=0;entryDy=0;entryPerimeter=0;" edge="1" parent="WIyWlLk6GJQsqaUBKTNV-1" source="j27dEvf3UT6huoDrGfdZ-281" target="j27dEvf3UT6huoDrGfdZ-13">
          <mxGeometry width="100" height="100" relative="1" as="geometry">
            <mxPoint x="860" y="-429" as="sourcePoint" />
            <mxPoint x="590" y="210" as="targetPoint" />
          </mxGeometry>
        </mxCell>
        <mxCell id="ijFL162SzWKfCgBAEUno-453" value="" style="fontSize=12;html=1;endArrow=ERmany;rounded=0;exitX=0.5;exitY=1;exitDx=0;exitDy=0;entryX=0.5;entryY=0;entryDx=0;entryDy=0;edgeStyle=orthogonalEdgeStyle;" edge="1" parent="WIyWlLk6GJQsqaUBKTNV-1" source="j27dEvf3UT6huoDrGfdZ-270" target="j27dEvf3UT6huoDrGfdZ-13">
          <mxGeometry width="100" height="100" relative="1" as="geometry">
            <mxPoint x="610" y="-30" as="sourcePoint" />
            <mxPoint x="605" y="260" as="targetPoint" />
            <Array as="points">
              <mxPoint x="700" />
              <mxPoint x="620" />
            </Array>
          </mxGeometry>
        </mxCell>
        <mxCell id="ijFL162SzWKfCgBAEUno-454" value="" style="edgeStyle=orthogonalEdgeStyle;fontSize=12;html=1;endArrow=ERmany;rounded=0;entryX=0.75;entryY=1;entryDx=0;entryDy=0;exitX=0.5;exitY=0;exitDx=0;exitDy=0;" edge="1" parent="WIyWlLk6GJQsqaUBKTNV-1" source="j27dEvf3UT6huoDrGfdZ-270" target="j27dEvf3UT6huoDrGfdZ-265">
          <mxGeometry width="100" height="100" relative="1" as="geometry">
            <mxPoint x="800" y="-459" as="sourcePoint" />
            <mxPoint x="690" y="-459" as="targetPoint" />
          </mxGeometry>
        </mxCell>
        <mxCell id="ijFL162SzWKfCgBAEUno-456" value="" style="endArrow=none;html=1;rounded=0;entryX=0;entryY=0.5;entryDx=0;entryDy=0;exitX=1;exitY=0.5;exitDx=0;exitDy=0;" edge="1" parent="WIyWlLk6GJQsqaUBKTNV-1" source="ijFL162SzWKfCgBAEUno-400" target="j27dEvf3UT6huoDrGfdZ-141">
          <mxGeometry relative="1" as="geometry">
            <mxPoint x="610" y="250" as="sourcePoint" />
            <mxPoint x="770" y="250" as="targetPoint" />
          </mxGeometry>
        </mxCell>
        <mxCell id="ijFL162SzWKfCgBAEUno-457" value="" style="edgeStyle=orthogonalEdgeStyle;fontSize=12;html=1;endArrow=ERmany;rounded=0;entryX=1;entryY=0.75;entryDx=0;entryDy=0;exitX=0.5;exitY=0;exitDx=0;exitDy=0;" edge="1" parent="WIyWlLk6GJQsqaUBKTNV-1" source="j27dEvf3UT6huoDrGfdZ-142" target="j27dEvf3UT6huoDrGfdZ-141">
          <mxGeometry width="100" height="100" relative="1" as="geometry">
            <mxPoint x="660" y="440" as="sourcePoint" />
            <mxPoint x="760" y="340" as="targetPoint" />
          </mxGeometry>
        </mxCell>
        <mxCell id="ijFL162SzWKfCgBAEUno-458" value="" style="edgeStyle=orthogonalEdgeStyle;fontSize=12;html=1;endArrow=ERmany;rounded=0;exitX=0.5;exitY=1;exitDx=0;exitDy=0;entryX=0.75;entryY=0;entryDx=0;entryDy=0;" edge="1" parent="WIyWlLk6GJQsqaUBKTNV-1" source="j27dEvf3UT6huoDrGfdZ-142" target="j27dEvf3UT6huoDrGfdZ-18">
          <mxGeometry width="100" height="100" relative="1" as="geometry">
            <mxPoint x="590" y="330" as="sourcePoint" />
            <mxPoint x="690" y="230" as="targetPoint" />
          </mxGeometry>
        </mxCell>
        <mxCell id="ijFL162SzWKfCgBAEUno-459" value="" style="edgeStyle=orthogonalEdgeStyle;fontSize=12;html=1;endArrow=ERmany;rounded=0;exitX=0.5;exitY=1;exitDx=0;exitDy=0;entryX=0.25;entryY=0;entryDx=0;entryDy=0;" edge="1" parent="WIyWlLk6GJQsqaUBKTNV-1" source="j27dEvf3UT6huoDrGfdZ-141" target="j27dEvf3UT6huoDrGfdZ-18">
          <mxGeometry width="100" height="100" relative="1" as="geometry">
            <mxPoint x="510" y="410" as="sourcePoint" />
            <mxPoint x="435" y="450" as="targetPoint" />
            <Array as="points">
              <mxPoint x="375" y="310" />
            </Array>
          </mxGeometry>
        </mxCell>
        <mxCell id="ijFL162SzWKfCgBAEUno-460" value="" style="edgeStyle=orthogonalEdgeStyle;fontSize=12;html=1;endArrow=ERmany;rounded=0;exitX=1;exitY=0.25;exitDx=0;exitDy=0;entryX=0;entryY=0.5;entryDx=0;entryDy=0;" edge="1" parent="WIyWlLk6GJQsqaUBKTNV-1" source="j27dEvf3UT6huoDrGfdZ-141" target="j27dEvf3UT6huoDrGfdZ-13">
          <mxGeometry width="100" height="100" relative="1" as="geometry">
            <mxPoint x="520" y="420" as="sourcePoint" />
            <mxPoint x="445" y="460" as="targetPoint" />
          </mxGeometry>
        </mxCell>
        <mxCell id="ijFL162SzWKfCgBAEUno-461" value="" style="fontSize=12;html=1;endArrow=ERmany;rounded=0;exitX=0;exitY=0.5;exitDx=0;exitDy=0;entryX=0.75;entryY=0;entryDx=0;entryDy=0;" edge="1" parent="WIyWlLk6GJQsqaUBKTNV-1" source="j27dEvf3UT6huoDrGfdZ-382" target="j27dEvf3UT6huoDrGfdZ-13">
          <mxGeometry width="100" height="100" relative="1" as="geometry">
            <mxPoint x="610" y="-30" as="sourcePoint" />
            <mxPoint x="612" y="259" as="targetPoint" />
            <Array as="points">
              <mxPoint x="640" y="20" />
            </Array>
          </mxGeometry>
        </mxCell>
        <mxCell id="ijFL162SzWKfCgBAEUno-465" value="" style="fontSize=12;html=1;endArrow=ERmany;rounded=0;exitX=0.5;exitY=0;exitDx=0;exitDy=0;entryX=0.5;entryY=1;entryDx=0;entryDy=0;" edge="1" parent="WIyWlLk6GJQsqaUBKTNV-1" source="j27dEvf3UT6huoDrGfdZ-281" target="ijFL162SzWKfCgBAEUno-431">
          <mxGeometry width="100" height="100" relative="1" as="geometry">
            <mxPoint x="610" y="-30" as="sourcePoint" />
            <mxPoint x="612" y="254" as="targetPoint" />
          </mxGeometry>
        </mxCell>
        <mxCell id="ijFL162SzWKfCgBAEUno-466" value="mapa" style="whiteSpace=wrap;html=1;align=center;" vertex="1" parent="WIyWlLk6GJQsqaUBKTNV-1">
          <mxGeometry x="827" y="-170" width="100" height="40" as="geometry" />
        </mxCell>
        <mxCell id="ijFL162SzWKfCgBAEUno-467" value="" style="fontSize=12;html=1;endArrow=ERmany;rounded=0;exitX=0.5;exitY=0;exitDx=0;exitDy=0;entryX=0.5;entryY=1;entryDx=0;entryDy=0;" edge="1" parent="WIyWlLk6GJQsqaUBKTNV-1" source="j27dEvf3UT6huoDrGfdZ-382" target="ijFL162SzWKfCgBAEUno-466">
          <mxGeometry width="100" height="100" relative="1" as="geometry">
            <mxPoint x="827" y="30" as="sourcePoint" />
            <mxPoint x="655" y="255" as="targetPoint" />
            <Array as="points" />
          </mxGeometry>
        </mxCell>
        <mxCell id="ijFL162SzWKfCgBAEUno-468" value="&lt;span style=&quot;border-bottom: 1px dotted&quot;&gt;nome_boss&lt;/span&gt;" style="ellipse;whiteSpace=wrap;html=1;align=center;" vertex="1" parent="WIyWlLk6GJQsqaUBKTNV-1">
          <mxGeometry x="890" y="-100" width="100" height="40" as="geometry" />
        </mxCell>
        <mxCell id="ijFL162SzWKfCgBAEUno-470" value="nome" style="ellipse;whiteSpace=wrap;html=1;align=center;fontStyle=4;" vertex="1" parent="WIyWlLk6GJQsqaUBKTNV-1">
          <mxGeometry x="760" y="-100" width="100" height="40" as="geometry" />
        </mxCell>
        <mxCell id="ijFL162SzWKfCgBAEUno-471" value="" style="endArrow=none;html=1;rounded=0;exitX=1;exitY=0.5;exitDx=0;exitDy=0;entryX=0.5;entryY=0;entryDx=0;entryDy=0;edgeStyle=orthogonalEdgeStyle;" edge="1" parent="WIyWlLk6GJQsqaUBKTNV-1" source="ijFL162SzWKfCgBAEUno-466" target="ijFL162SzWKfCgBAEUno-468">
          <mxGeometry relative="1" as="geometry">
            <mxPoint x="890" y="-110" as="sourcePoint" />
            <mxPoint x="1050" y="-110" as="targetPoint" />
          </mxGeometry>
        </mxCell>
        <mxCell id="ijFL162SzWKfCgBAEUno-472" value="" style="endArrow=none;html=1;rounded=0;exitX=0;exitY=0.5;exitDx=0;exitDy=0;entryX=0.5;entryY=0;entryDx=0;entryDy=0;edgeStyle=orthogonalEdgeStyle;" edge="1" parent="WIyWlLk6GJQsqaUBKTNV-1" source="ijFL162SzWKfCgBAEUno-466" target="ijFL162SzWKfCgBAEUno-470">
          <mxGeometry relative="1" as="geometry">
            <mxPoint x="1060" y="-95" as="sourcePoint" />
            <mxPoint x="1073" y="-45" as="targetPoint" />
          </mxGeometry>
        </mxCell>
        <mxCell id="ijFL162SzWKfCgBAEUno-473" style="edgeStyle=orthogonalEdgeStyle;rounded=0;orthogonalLoop=1;jettySize=auto;html=1;entryX=1;entryY=0.5;entryDx=0;entryDy=0;endArrow=none;endFill=0;" edge="1" parent="WIyWlLk6GJQsqaUBKTNV-1" source="ijFL162SzWKfCgBAEUno-478" target="ijFL162SzWKfCgBAEUno-482">
          <mxGeometry relative="1" as="geometry" />
        </mxCell>
        <mxCell id="ijFL162SzWKfCgBAEUno-474" value="" style="edgeStyle=orthogonalEdgeStyle;rounded=0;orthogonalLoop=1;jettySize=auto;html=1;endArrow=none;endFill=0;" edge="1" parent="WIyWlLk6GJQsqaUBKTNV-1" source="ijFL162SzWKfCgBAEUno-478" target="ijFL162SzWKfCgBAEUno-483">
          <mxGeometry relative="1" as="geometry" />
        </mxCell>
        <mxCell id="ijFL162SzWKfCgBAEUno-475" style="edgeStyle=orthogonalEdgeStyle;rounded=0;orthogonalLoop=1;jettySize=auto;html=1;entryX=0;entryY=0.5;entryDx=0;entryDy=0;endArrow=none;endFill=0;" edge="1" parent="WIyWlLk6GJQsqaUBKTNV-1" source="ijFL162SzWKfCgBAEUno-478" target="ijFL162SzWKfCgBAEUno-481">
          <mxGeometry relative="1" as="geometry" />
        </mxCell>
        <mxCell id="ijFL162SzWKfCgBAEUno-476" style="edgeStyle=orthogonalEdgeStyle;rounded=0;orthogonalLoop=1;jettySize=auto;html=1;entryX=1;entryY=0.5;entryDx=0;entryDy=0;endArrow=none;endFill=0;" edge="1" parent="WIyWlLk6GJQsqaUBKTNV-1" source="ijFL162SzWKfCgBAEUno-478" target="ijFL162SzWKfCgBAEUno-480">
          <mxGeometry relative="1" as="geometry" />
        </mxCell>
        <mxCell id="ijFL162SzWKfCgBAEUno-477" style="edgeStyle=orthogonalEdgeStyle;rounded=0;orthogonalLoop=1;jettySize=auto;html=1;entryX=0;entryY=0.5;entryDx=0;entryDy=0;endArrow=none;endFill=0;" edge="1" parent="WIyWlLk6GJQsqaUBKTNV-1" source="ijFL162SzWKfCgBAEUno-478" target="ijFL162SzWKfCgBAEUno-479">
          <mxGeometry relative="1" as="geometry" />
        </mxCell>
        <mxCell id="ijFL162SzWKfCgBAEUno-478" value="spawna" style="shape=rhombus;perimeter=rhombusPerimeter;whiteSpace=wrap;html=1;align=center;" vertex="1" parent="WIyWlLk6GJQsqaUBKTNV-1">
          <mxGeometry x="850" y="-670" width="120" height="60" as="geometry" />
        </mxCell>
        <mxCell id="ijFL162SzWKfCgBAEUno-479" value="HP" style="ellipse;whiteSpace=wrap;html=1;align=center;" vertex="1" parent="WIyWlLk6GJQsqaUBKTNV-1">
          <mxGeometry x="940" y="-750" width="100" height="40" as="geometry" />
        </mxCell>
        <mxCell id="ijFL162SzWKfCgBAEUno-480" value="HP_NG+&lt;span style=&quot;white-space: pre;&quot;&gt; &lt;/span&gt;" style="ellipse;whiteSpace=wrap;html=1;align=center;" vertex="1" parent="WIyWlLk6GJQsqaUBKTNV-1">
          <mxGeometry x="780" y="-750" width="100" height="40" as="geometry" />
        </mxCell>
        <mxCell id="ijFL162SzWKfCgBAEUno-481" value="almas" style="ellipse;whiteSpace=wrap;html=1;align=center;" vertex="1" parent="WIyWlLk6GJQsqaUBKTNV-1">
          <mxGeometry x="940" y="-710" width="100" height="40" as="geometry" />
        </mxCell>
        <mxCell id="ijFL162SzWKfCgBAEUno-482" value="almas_NG+" style="ellipse;whiteSpace=wrap;html=1;align=center;" vertex="1" parent="WIyWlLk6GJQsqaUBKTNV-1">
          <mxGeometry x="780" y="-710" width="100" height="40" as="geometry" />
        </mxCell>
        <mxCell id="ijFL162SzWKfCgBAEUno-483" value="respawn" style="ellipse;whiteSpace=wrap;html=1;align=center;" vertex="1" parent="WIyWlLk6GJQsqaUBKTNV-1">
          <mxGeometry x="861" y="-800" width="100" height="40" as="geometry" />
        </mxCell>
        <mxCell id="ijFL162SzWKfCgBAEUno-484" value="" style="edgeStyle=orthogonalEdgeStyle;fontSize=12;html=1;endArrow=ERmany;rounded=0;entryX=1;entryY=0.5;entryDx=0;entryDy=0;exitX=0;exitY=0.5;exitDx=0;exitDy=0;" edge="1" parent="WIyWlLk6GJQsqaUBKTNV-1" source="ijFL162SzWKfCgBAEUno-478" target="j27dEvf3UT6huoDrGfdZ-318">
          <mxGeometry width="100" height="100" relative="1" as="geometry">
            <mxPoint x="750" y="-470" as="sourcePoint" />
            <mxPoint x="850" y="-570" as="targetPoint" />
          </mxGeometry>
        </mxCell>
        <mxCell id="ijFL162SzWKfCgBAEUno-485" value="" style="edgeStyle=orthogonalEdgeStyle;fontSize=12;html=1;endArrow=ERmany;rounded=0;exitX=0.5;exitY=1;exitDx=0;exitDy=0;entryX=0.5;entryY=0;entryDx=0;entryDy=0;" edge="1" parent="WIyWlLk6GJQsqaUBKTNV-1" source="ijFL162SzWKfCgBAEUno-478" target="ijFL162SzWKfCgBAEUno-466">
          <mxGeometry width="100" height="100" relative="1" as="geometry">
            <mxPoint x="750" y="-470" as="sourcePoint" />
            <mxPoint x="850" y="-570" as="targetPoint" />
          </mxGeometry>
        </mxCell>
        <mxCell id="ijFL162SzWKfCgBAEUno-487" value="reside" style="shape=rhombus;perimeter=rhombusPerimeter;whiteSpace=wrap;html=1;align=center;" vertex="1" parent="WIyWlLk6GJQsqaUBKTNV-1">
          <mxGeometry x="707" y="-430" width="120" height="60" as="geometry" />
        </mxCell>
        <mxCell id="ijFL162SzWKfCgBAEUno-488" value="" style="edgeStyle=orthogonalEdgeStyle;fontSize=12;html=1;endArrow=ERmany;rounded=0;entryX=1;entryY=0.5;entryDx=0;entryDy=0;exitX=0.5;exitY=0;exitDx=0;exitDy=0;" edge="1" parent="WIyWlLk6GJQsqaUBKTNV-1" source="ijFL162SzWKfCgBAEUno-487" target="j27dEvf3UT6huoDrGfdZ-265">
          <mxGeometry width="100" height="100" relative="1" as="geometry">
            <mxPoint x="830" y="-320" as="sourcePoint" />
            <mxPoint x="930" y="-420" as="targetPoint" />
          </mxGeometry>
        </mxCell>
        <mxCell id="ijFL162SzWKfCgBAEUno-489" value="" style="edgeStyle=orthogonalEdgeStyle;fontSize=12;html=1;endArrow=ERmany;rounded=0;exitX=0.5;exitY=1;exitDx=0;exitDy=0;entryX=0.25;entryY=0;entryDx=0;entryDy=0;" edge="1" parent="WIyWlLk6GJQsqaUBKTNV-1" source="ijFL162SzWKfCgBAEUno-487" target="ijFL162SzWKfCgBAEUno-466">
          <mxGeometry width="100" height="100" relative="1" as="geometry">
            <mxPoint x="830" y="-320" as="sourcePoint" />
            <mxPoint x="930" y="-420" as="targetPoint" />
          </mxGeometry>
        </mxCell>
        <mxCell id="ijFL162SzWKfCgBAEUno-490" value="comanda" style="shape=rhombus;perimeter=rhombusPerimeter;whiteSpace=wrap;html=1;align=center;" vertex="1" parent="WIyWlLk6GJQsqaUBKTNV-1">
          <mxGeometry x="890" y="-270" width="120" height="60" as="geometry" />
        </mxCell>
        <mxCell id="ijFL162SzWKfCgBAEUno-491" value="" style="edgeStyle=orthogonalEdgeStyle;fontSize=12;html=1;endArrow=ERone;endFill=1;rounded=0;exitX=0;exitY=1;exitDx=0;exitDy=0;entryX=0.75;entryY=0;entryDx=0;entryDy=0;" edge="1" parent="WIyWlLk6GJQsqaUBKTNV-1" source="ijFL162SzWKfCgBAEUno-490" target="ijFL162SzWKfCgBAEUno-466">
          <mxGeometry width="100" height="100" relative="1" as="geometry">
            <mxPoint x="1150" y="-230" as="sourcePoint" />
            <mxPoint x="1250" y="-330" as="targetPoint" />
          </mxGeometry>
        </mxCell>
        <mxCell id="ijFL162SzWKfCgBAEUno-492" value="" style="edgeStyle=orthogonalEdgeStyle;fontSize=12;html=1;endArrow=ERone;endFill=1;rounded=0;exitX=1;exitY=0;exitDx=0;exitDy=0;entryX=0;entryY=0.5;entryDx=0;entryDy=0;" edge="1" parent="WIyWlLk6GJQsqaUBKTNV-1" source="ijFL162SzWKfCgBAEUno-490" target="j27dEvf3UT6huoDrGfdZ-305">
          <mxGeometry width="100" height="100" relative="1" as="geometry">
            <mxPoint x="1040" y="-300" as="sourcePoint" />
            <mxPoint x="1022" y="-245" as="targetPoint" />
          </mxGeometry>
        </mxCell>
      </root>
    </mxGraphModel>
  </diagram>
</mxfile>
